<?xml version="1.0" encoding="UTF-8"?>
<svg id="Capa_1" data-name="Capa 1" xmlns="http://www.w3.org/2000/svg" xmlns:xlink="http://www.w3.org/1999/xlink" viewBox="0 0 1921.06 190.22">
  <defs>
    <style>
      .cls-1 {
        fill: none;
      }

      .cls-1, .cls-2, .cls-3, .cls-4, .cls-5 {
        stroke: #000;
        stroke-miterlimit: 10;
      }

      .cls-6, .cls-3, .cls-4, .cls-5 {
        fill: #ffc404;
      }

      .cls-3 {
        stroke-width: 2px;
      }

      .cls-7 {
        clip-path: url(#clippath-1);
      }

      .cls-5 {
        stroke-width: .25px;
      }

      .cls-8 {
        clip-path: url(#clippath);
      }
    </style>
    <clipPath id="clippath">
      <polygon class="cls-4" points="1914.13 178.48 1.72 71.84 6.93 11.74 1919.35 118.37 1917.24 142.69 1914.19 177.8 1914.13 178.48"/>
    </clipPath>
    <clipPath id="clippath-1">
      <polygon class="cls-1" points="1913.95 .52 .53 84.52 7.11 189.7 1920.53 105.7 1913.95 .52"/>
    </clipPath>
  </defs>
  <g>
    <polygon class="cls-6" points="1914.13 178.48 1.72 71.84 6.93 11.74 1919.35 118.37 1917.24 142.69 1914.19 177.8 1914.13 178.48"/>
    <g class="cls-8">
      <g>
        <polygon class="cls-2" points="3.64 52.37 7 15.47 12.91 12.07 64.7 14.96 3.64 52.37"/>
        <polygon class="cls-2" points="85.09 76.49 33.3 73.6 127.16 18.44 178.96 21.33 85.09 76.49"/>
        <polygon class="cls-2" points="199.34 82.86 147.55 79.98 241.42 24.81 293.21 27.7 199.34 82.86"/>
        <polygon class="cls-2" points="313.6 89.23 261.8 86.35 355.67 31.18 407.46 34.07 313.6 89.23"/>
        <polygon class="cls-2" points="427.85 95.6 376.05 92.72 469.92 37.55 521.71 40.44 427.85 95.6"/>
        <polygon class="cls-2" points="542.1 101.98 490.31 99.09 584.17 43.93 635.97 46.81 542.1 101.98"/>
        <polygon class="cls-2" points="656.35 108.35 604.56 105.46 698.43 50.3 750.22 53.18 656.35 108.35"/>
        <polygon class="cls-2" points="770.61 114.72 718.81 111.83 812.68 56.67 864.47 59.55 770.61 114.72"/>
        <polygon class="cls-2" points="884.86 121.09 833.06 118.2 926.93 63.04 978.73 65.93 884.86 121.09"/>
        <polygon class="cls-2" points="999.11 127.46 947.32 124.57 1041.18 69.41 1092.98 72.3 999.11 127.46"/>
        <polygon class="cls-2" points="1113.36 133.83 1061.57 130.94 1155.44 75.78 1207.23 78.67 1113.36 133.83"/>
        <polygon class="cls-2" points="1227.62 140.2 1175.82 137.31 1269.69 82.15 1321.48 85.04 1227.62 140.2"/>
        <polygon class="cls-2" points="1341.87 146.57 1290.07 143.68 1383.94 88.52 1435.74 91.41 1341.87 146.57"/>
        <polygon class="cls-2" points="1456.12 152.94 1404.33 150.05 1498.19 94.89 1549.99 97.78 1456.12 152.94"/>
        <polygon class="cls-2" points="1570.37 159.31 1518.58 156.42 1612.45 101.26 1664.24 104.15 1570.37 159.31"/>
        <polygon class="cls-2" points="1684.63 165.68 1632.83 162.79 1726.7 107.63 1778.49 110.52 1684.63 165.68"/>
        <polygon class="cls-2" points="1798.88 172.05 1747.08 169.17 1840.95 114 1892.75 116.89 1798.88 172.05"/>
        <polygon class="cls-2" points="1913.13 178.42 1861.34 175.54 1917.24 142.69 1914.19 177.8 1913.13 178.42"/>
      </g>
    </g>
    <polygon class="cls-1" points="1914.13 178.48 1.72 71.84 6.93 11.74 1919.35 118.37 1917.24 142.69 1914.19 177.8 1914.13 178.48"/>
  </g>
  <g>
    <polygon class="cls-5" points="1920.53 105.7 7.11 189.7 .53 84.52 1913.95 .52 1920.53 105.7"/>
    <g>
      <g class="cls-7">
        <g>
          <polygon class="cls-2" points="57.64 171.25 6.53 173.79 22.53 188.86 70.53 187.19 57.64 171.25"/>
          <polygon class="cls-2" points="83.95 80.85 32.13 83.13 127.4 184.42 179.23 182.14 83.95 80.85"/>
          <polygon class="cls-2" points="198.26 75.84 146.44 78.11 241.72 179.4 293.54 177.12 198.26 75.84"/>
          <polygon class="cls-2" points="312.58 70.82 260.75 73.09 356.03 174.38 407.85 172.11 312.58 70.82"/>
          <polygon class="cls-2" points="426.89 65.8 375.07 68.07 470.34 169.36 522.16 167.09 426.89 65.8"/>
          <polygon class="cls-2" points="541.2 60.78 489.38 63.06 584.65 164.34 636.48 162.07 541.2 60.78"/>
          <polygon class="cls-2" points="655.51 55.76 603.69 58.04 698.97 159.33 750.79 157.05 655.51 55.76"/>
          <polygon class="cls-2" points="769.83 50.75 718 53.02 813.28 154.31 865.1 152.03 769.83 50.75"/>
          <polygon class="cls-2" points="884.14 45.73 832.32 48 927.59 149.29 979.41 147.02 884.14 45.73"/>
          <polygon class="cls-2" points="998.45 40.71 946.63 42.98 1041.91 144.27 1093.73 142 998.45 40.71"/>
          <polygon class="cls-2" points="1112.77 35.69 1060.94 37.97 1156.22 139.25 1208.04 136.98 1112.77 35.69"/>
          <polygon class="cls-2" points="1227.08 30.67 1175.26 32.95 1270.53 134.24 1322.35 131.96 1227.08 30.67"/>
          <polygon class="cls-2" points="1341.39 25.65 1289.57 27.93 1384.84 129.22 1436.67 126.94 1341.39 25.65"/>
          <polygon class="cls-2" points="1455.7 20.64 1403.88 22.91 1499.16 124.2 1550.98 121.93 1455.7 20.64"/>
          <polygon class="cls-2" points="1570.02 15.62 1518.19 17.89 1613.47 119.18 1665.29 116.91 1570.02 15.62"/>
          <polygon class="cls-2" points="1684.33 10.6 1632.51 12.88 1727.78 114.16 1779.6 111.89 1684.33 10.6"/>
          <polygon class="cls-2" points="1798.64 5.58 1746.82 7.86 1842.09 109.15 1893.92 106.87 1798.64 5.58"/>
          <polygon class="cls-2" points="1912.95 .56 1861.13 2.84 1875.53 18.1 1914.53 15.59 1912.95 .56"/>
        </g>
      </g>
      <polygon class="cls-1" points="1913.95 .52 .53 84.52 7.11 189.7 1920.53 105.7 1913.95 .52"/>
    </g>
    <polygon class="cls-3" points="1919.54 89.84 6.12 173.84 1.52 100.38 1914.94 16.38 1919.54 89.84"/>
    <g>
      <g>
        <path class="cls-2" d="m14.45,160.89l9.45-48.29,15.84-.7,15.27,47.21-13.32.58-2.24-9.07-10.48.46-1.09,9.22-13.44.59Zm15.36-18.49l7.66-.34-5.12-20.67-2.55,21Z"/>
        <path class="cls-2" d="m64.49,158.69l-2.41-38.48-10.66.47-.58-9.27,35.24-1.55.58,9.27-11.22.49,2.41,38.48-13.36.59Z"/>
        <path class="cls-2" d="m103.2,156.99l-2.41-38.48-10.66.47-.58-9.27,35.24-1.55.58,9.27-11.22.49,2.41,38.48-13.36.59Z"/>
        <path class="cls-2" d="m133.22,155.67l-2.99-47.75,31.02-1.36.58,9.27-17.77.78.55,8.77,16.4-.72.6,9.58-16.4.72.65,10.42,17.77-.78.61,9.7-31.02,1.36Z"/>
        <path class="cls-2" d="m172.5,153.95l-2.99-47.75,13.88-.61,12.91,28.97c-.75-4.94-1.35-9.21-1.78-12.79-.43-3.59-.73-6.62-.88-9.1l-.47-7.5,11.88-.52,2.99,47.75-13.92.61-13.04-29.86c.74,3.93,1.36,7.74,1.85,11.44.49,3.7.85,7.29,1.06,10.79l.5,8.06-11.99.53Z"/>
        <path class="cls-2" d="m224.31,151.68l-2.41-38.48-10.66.47-.58-9.27,35.24-1.55.58,9.27-11.22.49,2.41,38.48-13.36.59Z"/>
        <path class="cls-2" d="m254.33,150.36l-2.99-47.75,13.32-.58,2.99,47.75-13.32.58Z"/>
        <path class="cls-2" d="m274.27,125.54c-.36-5.75-.38-9.95-.05-12.62.33-2.67,1.01-4.77,2.06-6.31,1.5-2.18,3.53-3.84,6.11-4.98,2.58-1.14,5.71-1.79,9.42-1.95,3.73-.16,6.92.21,9.59,1.12,2.67.91,4.88,2.38,6.64,4.42,1.28,1.46,2.25,3.5,2.91,6.12.66,2.62,1.17,6.8,1.53,12.52s.37,9.9.05,12.57c-.33,2.68-1.04,4.8-2.13,6.36-1.47,2.16-3.49,3.81-6.06,4.96-2.56,1.15-5.7,1.8-9.4,1.97s-6.9-.21-9.61-1.13c-2.71-.92-4.94-2.38-6.7-4.4-1.23-1.44-2.17-3.47-2.83-6.09-.66-2.62-1.17-6.81-1.53-12.56Zm24.85,3.23l-.54-8.62c-.33-5.29-.94-8.55-1.82-9.76-.88-1.21-2.37-1.78-4.47-1.68s-3.43.79-4.14,2.11c-.71,1.32-.9,4.59-.57,9.82l.54,8.62c.32,5.17.92,8.39,1.79,9.67.87,1.28,2.36,1.87,4.45,1.78s3.46-.79,4.17-2.11c.71-1.32.9-4.59.57-9.82Z"/>
        <path class="cls-2" d="m322.1,147.38l-2.99-47.75,13.88-.61,12.91,28.97c-.75-4.94-1.35-9.21-1.78-12.79-.44-3.59-.73-6.62-.89-9.1l-.47-7.5,11.88-.52,2.99,47.75-13.92.61-13.04-29.86c.74,3.93,1.36,7.74,1.85,11.44.49,3.7.85,7.29,1.06,10.79l.5,8.06-11.99.53Z"/>
      </g>
      <g>
        <path class="cls-2" d="m402.36,143.86l9.45-48.29,15.84-.7,15.27,47.21-13.32.58-2.24-9.07-10.48.46-1.09,9.22-13.44.59Zm15.36-18.49l7.66-.34-5.12-20.67-2.55,21Z"/>
        <path class="cls-2" d="m452.4,141.66l-2.41-38.48-10.66.47-.58-9.27,35.24-1.55.58,9.27-11.22.49,2.41,38.48-13.36.59Z"/>
        <path class="cls-2" d="m491.12,139.96l-2.41-38.48-10.66.47-.58-9.27,35.24-1.55.58,9.27-11.21.49,2.41,38.48-13.36.59Z"/>
        <path class="cls-2" d="m521.14,138.65l-2.99-47.75,31.02-1.36.58,9.27-17.77.78.55,8.77,16.4-.72.6,9.58-16.4.72.65,10.42,17.77-.78.61,9.7-31.02,1.36Z"/>
        <path class="cls-2" d="m560.41,136.92l-2.99-47.75,13.88-.61,12.91,28.97c-.76-4.94-1.35-9.21-1.78-12.79-.43-3.59-.73-6.62-.88-9.1l-.47-7.5,11.88-.52,2.99,47.75-13.92.61-13.04-29.86c.74,3.93,1.36,7.74,1.85,11.44.49,3.7.85,7.29,1.06,10.79l.5,8.06-11.99.53Z"/>
        <path class="cls-2" d="m612.23,134.65l-2.41-38.48-10.66.47-.58-9.27,35.24-1.55.58,9.27-11.22.49,2.41,38.48-13.36.59Z"/>
        <path class="cls-2" d="m642.25,133.33l-2.99-47.75,13.32-.58,2.99,47.75-13.32.58Z"/>
        <path class="cls-2" d="m662.19,108.51c-.36-5.75-.38-9.95-.05-12.62.33-2.67,1.01-4.77,2.05-6.31,1.5-2.18,3.53-3.84,6.11-4.98,2.58-1.14,5.71-1.79,9.42-1.95,3.73-.16,6.92.21,9.59,1.12,2.67.91,4.88,2.38,6.64,4.42,1.28,1.46,2.25,3.5,2.91,6.12.66,2.62,1.17,6.8,1.53,12.52s.37,9.9.04,12.57c-.33,2.68-1.03,4.8-2.12,6.36-1.47,2.16-3.49,3.81-6.06,4.96-2.56,1.15-5.7,1.8-9.4,1.97-3.7.16-6.9-.21-9.61-1.13-2.71-.92-4.94-2.38-6.7-4.4-1.23-1.44-2.17-3.47-2.83-6.09-.66-2.62-1.17-6.81-1.53-12.56Zm24.85,3.23l-.54-8.62c-.33-5.29-.94-8.55-1.82-9.76-.88-1.21-2.37-1.78-4.47-1.68-2.05.09-3.43.79-4.14,2.11-.71,1.32-.9,4.59-.57,9.82l.54,8.62c.32,5.17.92,8.39,1.79,9.67.87,1.28,2.36,1.87,4.45,1.78s3.46-.79,4.17-2.11c.71-1.32.9-4.59.57-9.82Z"/>
        <path class="cls-2" d="m710.02,130.35l-2.99-47.75,13.88-.61,12.91,28.97c-.75-4.94-1.35-9.21-1.78-12.79-.44-3.59-.73-6.62-.88-9.1l-.47-7.5,11.88-.52,2.99,47.75-13.92.61-13.04-29.86c.74,3.93,1.36,7.74,1.85,11.44.49,3.7.85,7.29,1.06,10.79l.5,8.06-11.99.53Z"/>
      </g>
      <g>
        <path class="cls-2" d="m790.28,126.83l9.45-48.29,15.84-.7,15.27,47.21-13.32.58-2.24-9.07-10.48.46-1.09,9.22-13.44.59Zm15.36-18.49l7.66-.34-5.12-20.67-2.55,21Z"/>
        <path class="cls-2" d="m840.32,124.63l-2.41-38.48-10.66.47-.58-9.27,35.24-1.55.58,9.27-11.22.49,2.41,38.48-13.36.59Z"/>
        <path class="cls-2" d="m879.04,122.93l-2.41-38.48-10.66.47-.58-9.27,35.24-1.55.58,9.27-11.21.49,2.41,38.48-13.36.59Z"/>
        <path class="cls-2" d="m909.05,121.62l-2.99-47.75,31.02-1.36.58,9.27-17.77.78.55,8.77,16.4-.72.6,9.58-16.4.72.65,10.42,17.77-.78.61,9.7-31.02,1.36Z"/>
        <path class="cls-2" d="m948.33,119.89l-2.99-47.75,13.88-.61,12.91,28.97c-.76-4.94-1.35-9.21-1.78-12.79-.44-3.59-.73-6.62-.88-9.1l-.47-7.5,11.88-.52,2.99,47.75-13.92.61-13.04-29.86c.74,3.93,1.36,7.74,1.85,11.44.49,3.7.85,7.29,1.06,10.79l.5,8.06-11.99.53Z"/>
        <path class="cls-2" d="m1000.15,117.62l-2.41-38.48-10.66.47-.58-9.27,35.24-1.55.58,9.27-11.21.49,2.41,38.48-13.36.59Z"/>
        <path class="cls-2" d="m1030.16,116.3l-2.99-47.75,13.33-.58,2.99,47.75-13.33.58Z"/>
        <path class="cls-2" d="m1050.1,91.49c-.36-5.75-.38-9.95-.05-12.62.33-2.67,1.01-4.77,2.06-6.31,1.5-2.18,3.53-3.84,6.11-4.98,2.58-1.14,5.71-1.79,9.42-1.95,3.73-.16,6.92.21,9.59,1.12,2.67.91,4.88,2.38,6.64,4.42,1.28,1.46,2.25,3.5,2.9,6.12.66,2.62,1.17,6.8,1.53,12.52.36,5.7.37,9.9.04,12.57-.33,2.68-1.04,4.8-2.12,6.36-1.47,2.16-3.49,3.81-6.06,4.96-2.56,1.15-5.7,1.8-9.4,1.97s-6.9-.21-9.61-1.13c-2.7-.92-4.94-2.38-6.7-4.4-1.23-1.44-2.17-3.47-2.83-6.09-.66-2.62-1.17-6.81-1.53-12.56Zm24.85,3.23l-.54-8.62c-.33-5.29-.94-8.55-1.82-9.76-.88-1.21-2.37-1.78-4.47-1.68-2.05.09-3.43.79-4.14,2.11-.71,1.32-.9,4.59-.57,9.82l.54,8.62c.32,5.17.92,8.39,1.79,9.67.87,1.28,2.36,1.87,4.45,1.78,2.07-.09,3.46-.79,4.17-2.11.71-1.32.9-4.59.57-9.82Z"/>
        <path class="cls-2" d="m1097.94,113.33l-2.99-47.75,13.88-.61,12.91,28.97c-.75-4.94-1.35-9.21-1.78-12.79-.43-3.59-.73-6.62-.88-9.1l-.47-7.5,11.88-.52,2.99,47.75-13.92.61-13.04-29.86c.74,3.93,1.36,7.74,1.85,11.44.49,3.7.85,7.29,1.06,10.79l.5,8.06-11.99.53Z"/>
      </g>
      <g>
        <path class="cls-2" d="m1178.19,109.8l9.45-48.29,15.84-.7,15.27,47.21-13.32.58-2.24-9.07-10.47.46-1.09,9.22-13.44.59Zm15.36-18.49l7.66-.34-5.12-20.67-2.54,21Z"/>
        <path class="cls-2" d="m1228.24,107.61l-2.41-38.48-10.66.47-.58-9.27,35.24-1.55.58,9.27-11.21.49,2.41,38.48-13.36.59Z"/>
        <path class="cls-2" d="m1266.95,105.91l-2.41-38.48-10.66.47-.58-9.27,35.24-1.55.58,9.27-11.21.49,2.41,38.48-13.36.59Z"/>
        <path class="cls-2" d="m1296.97,104.59l-2.99-47.75,31.02-1.36.58,9.27-17.77.78.55,8.77,16.4-.72.6,9.58-16.4.72.65,10.42,17.77-.78.61,9.7-31.02,1.36Z"/>
        <path class="cls-2" d="m1336.24,102.86l-2.99-47.75,13.88-.61,12.91,28.97c-.76-4.94-1.35-9.21-1.78-12.79-.44-3.59-.73-6.62-.88-9.1l-.47-7.5,11.88-.52,2.99,47.75-13.92.61-13.04-29.86c.74,3.93,1.36,7.74,1.85,11.44.49,3.7.85,7.29,1.06,10.79l.5,8.06-11.99.53Z"/>
        <path class="cls-2" d="m1388.06,100.59l-2.41-38.48-10.66.47-.58-9.27,35.24-1.55.58,9.27-11.21.49,2.41,38.48-13.36.59Z"/>
        <path class="cls-2" d="m1418.08,99.27l-2.99-47.75,13.32-.58,2.99,47.75-13.32.58Z"/>
        <path class="cls-2" d="m1438.02,74.46c-.36-5.75-.37-9.95-.05-12.62.33-2.67,1.01-4.77,2.06-6.31,1.5-2.18,3.53-3.84,6.11-4.98,2.58-1.14,5.71-1.79,9.41-1.95s6.92.21,9.59,1.12c2.67.91,4.88,2.38,6.64,4.42,1.28,1.46,2.25,3.5,2.91,6.12.66,2.62,1.17,6.8,1.53,12.52.36,5.7.37,9.9.04,12.57-.33,2.68-1.04,4.8-2.12,6.36-1.48,2.16-3.49,3.81-6.05,4.96-2.56,1.15-5.7,1.8-9.4,1.97-3.7.16-6.9-.21-9.61-1.13-2.71-.92-4.94-2.38-6.7-4.4-1.23-1.44-2.17-3.47-2.83-6.09-.66-2.62-1.17-6.81-1.53-12.56Zm24.85,3.23l-.54-8.62c-.33-5.29-.94-8.55-1.82-9.76-.88-1.21-2.37-1.78-4.47-1.68s-3.43.79-4.14,2.11c-.71,1.32-.9,4.59-.57,9.82l.54,8.62c.32,5.17.92,8.39,1.79,9.67.87,1.28,2.36,1.87,4.45,1.78s3.46-.79,4.17-2.11c.71-1.32.9-4.59.57-9.82Z"/>
        <path class="cls-2" d="m1485.85,96.3l-2.99-47.75,13.88-.61,12.91,28.97c-.75-4.94-1.35-9.21-1.78-12.79-.43-3.59-.73-6.62-.88-9.1l-.47-7.5,11.88-.52,2.99,47.75-13.92.61-13.04-29.86c.74,3.93,1.36,7.74,1.85,11.44.49,3.7.85,7.29,1.06,10.79l.5,8.06-11.99.53Z"/>
      </g>
      <g>
        <path class="cls-2" d="m1566.11,92.77l9.45-48.29,15.84-.7,15.27,47.21-13.32.58-2.24-9.07-10.47.46-1.09,9.22-13.44.59Zm15.36-18.49l7.66-.34-5.12-20.67-2.55,21Z"/>
        <path class="cls-2" d="m1616.15,90.58l-2.41-38.48-10.66.47-.58-9.27,35.24-1.55.58,9.27-11.22.49,2.41,38.48-13.36.59Z"/>
        <path class="cls-2" d="m1654.87,88.88l-2.41-38.48-10.66.47-.58-9.27,35.24-1.55.58,9.27-11.22.49,2.41,38.48-13.36.59Z"/>
        <path class="cls-2" d="m1684.89,87.56l-2.99-47.75,31.02-1.36.58,9.27-17.77.78.55,8.77,16.4-.72.6,9.58-16.4.72.65,10.42,17.77-.78.61,9.7-31.02,1.36Z"/>
        <path class="cls-2" d="m1724.16,85.84l-2.99-47.75,13.88-.61,12.91,28.97c-.76-4.94-1.35-9.21-1.78-12.79-.44-3.59-.73-6.62-.88-9.1l-.47-7.5,11.88-.52,2.99,47.75-13.92.61-13.04-29.86c.74,3.93,1.36,7.74,1.85,11.44.49,3.7.85,7.29,1.06,10.79l.5,8.06-11.99.53Z"/>
        <path class="cls-2" d="m1775.98,83.56l-2.41-38.48-10.66.47-.58-9.27,35.24-1.55.58,9.27-11.21.49,2.41,38.48-13.36.59Z"/>
        <path class="cls-2" d="m1806,82.24l-2.99-47.75,13.32-.58,2.99,47.75-13.32.58Z"/>
        <path class="cls-2" d="m1825.93,57.43c-.36-5.75-.38-9.95-.05-12.62.33-2.67,1.01-4.77,2.06-6.31,1.5-2.18,3.53-3.84,6.11-4.98,2.58-1.14,5.71-1.79,9.41-1.95,3.73-.16,6.92.21,9.59,1.12,2.67.91,4.88,2.38,6.64,4.42,1.28,1.46,2.25,3.5,2.91,6.12.66,2.62,1.17,6.8,1.53,12.52.36,5.7.37,9.9.04,12.57-.33,2.68-1.04,4.8-2.12,6.36-1.48,2.16-3.49,3.81-6.05,4.96-2.56,1.15-5.7,1.8-9.4,1.97-3.7.16-6.9-.21-9.61-1.13-2.71-.92-4.94-2.38-6.7-4.4-1.23-1.44-2.17-3.47-2.83-6.09-.66-2.62-1.17-6.81-1.53-12.56Zm24.85,3.23l-.54-8.62c-.33-5.29-.94-8.55-1.82-9.76-.88-1.21-2.37-1.78-4.47-1.68s-3.43.79-4.14,2.11c-.71,1.32-.9,4.59-.57,9.82l.54,8.62c.32,5.17.92,8.39,1.79,9.67.87,1.28,2.36,1.87,4.45,1.78s3.47-.79,4.18-2.11c.71-1.32.9-4.59.57-9.82Z"/>
        <path class="cls-2" d="m1873.77,79.27l-2.99-47.75,13.88-.61,12.91,28.97c-.75-4.94-1.35-9.21-1.78-12.79-.43-3.59-.73-6.62-.88-9.1l-.47-7.5,11.88-.52,2.99,47.75-13.92.61-13.04-29.86c.74,3.93,1.36,7.74,1.85,11.44.49,3.7.85,7.29,1.06,10.79l.5,8.06-11.99.53Z"/>
      </g>
    </g>
  </g>
</svg>