<?xml version="1.0" encoding="utf-8"?>
<!-- Generator: Adobe Illustrator 27.1.1, SVG Export Plug-In . SVG Version: 6.00 Build 0)  -->
<svg version="1.1" id="OBJECTS" xmlns="http://www.w3.org/2000/svg" xmlns:xlink="http://www.w3.org/1999/xlink" x="0px" y="0px"
	 viewBox="0 0 600 600" style="enable-background:new 0 0 600 600;" xml:space="preserve">
<style type="text/css">
	.st0{clip-path:url(#SVGID_00000047039953668406574030000013197982019776575137_);}
	.st1{clip-path:url(#SVGID_00000073705780578158792190000014407311359306452647_);}
	.st2{fill:#FFFFFF;}
</style>
<g>
	<defs>
		<path id="SVGID_1_" d="M31.9,0h536.2C585.7,0,600,14.3,600,31.9v536.2c0,17.6-14.3,31.9-31.9,31.9H31.9C14.3,600,0,585.7,0,568.1
			V31.9C0,14.3,14.3,0,31.9,0z"/>
	</defs>
	<clipPath id="SVGID_00000067923465807984597110000008750242972163193249_">
		<use xlink:href="#SVGID_1_"  style="overflow:visible;"/>
	</clipPath>
	<g style="clip-path:url(#SVGID_00000067923465807984597110000008750242972163193249_);">
		<rect x="-150" width="900" height="600"/>
		<g>
			<defs>
				<rect id="SVGID_00000182506792820351368510000007381993986807639453_" x="-150" width="900" height="600"/>
			</defs>
			<clipPath id="SVGID_00000090282040365387190860000013092269873857804683_">
				<use xlink:href="#SVGID_00000182506792820351368510000007381993986807639453_"  style="overflow:visible;"/>
			</clipPath>
			<g style="clip-path:url(#SVGID_00000090282040365387190860000013092269873857804683_);">
				<g>
					<path class="st2" d="M-61.2,830.8c-28.6,0-54.3-21-59.8-48.8l-51.4-259.6c-5.2-26.1-18.4-67.1-29.4-91.4L-350,105.2
						c-12.7-28-1.2-63,25.6-78l231-129.1c23.2-13,58.2-38.2,77.8-56.2l264.1-241.5c10.9-10,25.5-15.5,40.9-15.5s30.2,5.6,41.2,15.8
						l194.2,179.8c19.5,18.1,54.3,43.5,77.5,56.7L913.7,13.6c26.7,15.2,38,50.2,25.1,78.1L827.8,332c-11.2,24.2-24.6,65.1-29.9,91.2
						l-71.7,350.7c-5.6,27.6-31.3,48.4-59.8,48.4c-2.3,0-4.5-0.1-6.8-0.4l-262.8-31.3c-13-1.5-31.2-2.4-49.8-2.4
						c-17.5,0-33.9,0.8-46.2,2.1l-355.7,40.2C-57,830.7-59.1,830.8-61.2,830.8L-61.2,830.8z M289.5-400.8
						c-11.8,0-22.9,4.2-31.2,11.7L-5.8-147.5c-20.3,18.6-56.4,44.7-80.5,58.1l-231,129.1c-20.5,11.4-29.2,38.1-19.5,59.4L-188.7,425
						c11.4,25.1,25,67.5,30.4,94.5l51.4,259.6c4.1,20.9,24.2,37.2,45.7,37.2c1.6,0,3.2-0.1,4.8-0.3L299.2,776
						c12.8-1.4,29.7-2.2,47.8-2.2c19.5,0,37.8,0.9,51.5,2.5l262.8,31.3c1.7,0.2,3.4,0.3,5.1,0.3c21.7,0,41.4-15.9,45.7-36.9
						l71.7-350.7c5.5-27,19.4-69.3,31-94.3l111-240.3c9.8-21.3,1.2-48-19.2-59.6L595.2-150.4c-24-13.6-59.9-39.9-80.1-58.6
						L320.9-388.8C312.6-396.5,301.4-400.8,289.5-400.8L289.5-400.8z"/>
					<path class="st2" d="M-33.3,801.4c-27.4,0-54.1-20.6-60.7-47l-65.1-241.9c-6.1-24.3-18.5-63-27.7-86.2l-124.5-304.6
						c-10.4-26.5,0.7-60.3,24.8-75.5l210-136.7c21.3-13.3,54.2-37.1,73.4-52.9l251.2-212.5c10.6-8.8,24.6-13.6,39.5-13.6
						s29.2,4.9,39.9,13.8l194.9,157.5c19.2,16.1,52,40.1,73,53.5L875.2,28.6c24,15.3,34.9,49.2,24.3,75.6l-89.5,234
						c-9.4,23.3-22,61.8-28.3,86l-78.3,319.6c-6.8,26.2-33.4,46.6-60.7,46.6c-1.2,0-2.5,0-3.7-0.1l-250.2-12.9
						c-12.9-0.9-30.7-1.4-49-1.4c-15.8,0-30.5,0.4-41.6,1l-328.1,24.3C-31.1,801.4-32.2,801.4-33.3,801.4L-33.3,801.4z M287.6-355.4
						c-11.6,0-22.5,3.7-30.5,10.3L5.9-132.6c-19.7,16.3-53.3,40.5-74.9,54L-279,58.1c-18.5,11.6-27.3,38.3-19.3,58.5l124.5,304.6
						c9.4,23.8,22,63.2,28.2,87.9l65.1,242c5.1,20.2,26.2,36.5,47.2,36.5c0.8,0,1.6,0,2.5-0.1l328.1-24.3
						c11.4-0.7,26.5-1.1,42.5-1.1c18.6,0,36.7,0.5,49.8,1.4l250.2,12.9c1,0.1,2,0.1,2.9,0.1c21.2,0,41.9-15.8,47.1-36l78.3-319.6
						c6.4-24.7,19.3-64,28.8-87.7l89.5-234c8.1-20.2-0.5-47-18.7-58.6L588-132.8c-21.6-13.8-54.9-38.2-74.5-54.5L318.6-344.8
						C310.4-351.7,299.4-355.4,287.6-355.4L287.6-355.4z"/>
					<path class="st2" d="M-5.3,772.2L-5.3,772.2c-26.2,0-53.8-20.3-61.7-45.2l-78.9-224.6c-7-22.3-18.6-58.6-25.9-80.8l-101-283.5
						c-8.1-24.8,2.6-57.4,23.9-72.6L-59.5-78.9c19-13.5,49.9-35.8,68.9-49.6l238.5-183.6c10.2-7.4,23.7-11.5,37.9-11.5
						c14.3,0,28.2,4.2,38.5,11.8l195.8,135.4c18.7,13.8,49.3,36.3,68.4,50.2l248.4,170c21.2,15.3,31.6,48,23.3,72.8L792,344.6
						c-7.5,22.3-19.4,58.4-26.6,80.6l-85,288.7c-8.1,25.1-35.2,44.7-61.7,44.7h-0.4l-237.9,5.6h-0.1c-21.3-0.2-55.3-0.4-79-0.4h-5.9
						L-5.3,772.2L-5.3,772.2z M-5.3,763.6v1.8V764V763.6L-5.3,763.6z M-132.9,498.2L-54,722.8c6.1,19.4,28.4,35.8,48.6,35.8
						l300.9-8.4h6c23.7,0,57.6,0.2,79,0.4l237.9-5.6h0.5c20.2,0,42.5-16.1,48.7-35.2l85-288.7c7.2-22.2,19.1-58.3,26.6-80.7
						l68.2-228.1c6.5-19.3-1.9-45.6-18.3-57.5l-248.4-170c-19.1-13.8-49.8-36.3-68.5-50.2L316.2-300.9c-7.9-5.9-19-9.2-30.5-9.2
						s-22,3.1-29.9,8.9L17.4-117.6c-19,13.8-49.9,36.1-69,49.7L-240.8,76.5c-16.6,11.8-25.2,38-19,57.3l101,283.5
						C-151.5,439.5-139.9,475.8-132.9,498.2L-132.9,498.2z"/>
					<path class="st2" d="M336.9,751.8c-16.4,0-32.4-0.5-44-1.2l-273.3-7.5h-0.1c-23.9-1.6-50.5-21.1-59.3-43.5l-92.5-206.9
						l-0.1-0.1c-8-20.5-18.8-54.3-24.2-75.6L-234,154.6l0-0.1c-5.8-23.2,4.5-54.5,23.1-69.8l168.2-152l0.1-0.1
						c17-13.9,45.9-34.7,64.5-46.4l225.5-154.6l0.1-0.1c9.8-6.1,22.7-9.5,36.4-9.5s27.2,3.5,37.2,9.9l196.5,113l0.1,0.1
						c18.5,11.9,47.2,32.9,64,47L798.5,58.7c18.4,15.4,28.4,46.8,22.4,70l-46.8,221.8l0,0.2c-5.6,21.3-16.7,55-24.9,75.4
						l-91.6,257.8c-8.9,22.2-35.7,41.5-59.7,42.9l-225.4,24.1h-0.2C362.8,751.5,350.3,751.8,336.9,751.8L336.9,751.8z M20.2,729.9
						l273.3,7.5h0.1c11.3,0.8,27.1,1.2,43.2,1.2c13,0,25.3-0.3,34.5-0.8l225.4-24.1h0.2c19.1-1.1,41.2-16.9,48.3-34.6l91.6-257.7
						c8-19.9,18.9-52.9,24.4-73.8L808,125.7l0-0.2c4.8-18.5-3.4-44.4-18-56.6L573.3-97.8c-16.4-13.7-44.5-34.3-62.6-46l-196.5-113
						l-0.1-0.1c-7.8-5-18.8-7.9-30.2-7.9c-11.4,0-21.6,2.6-29.3,7.4L29.1-102.7l-0.1,0.1C10.8-91.3-17.5-71-34.1-57.3l-168.2,152
						l-0.1,0.1c-14.8,12.1-23.3,37.9-18.8,56.4l77.4,262.2l0,0.1c5.2,20.8,15.8,53.9,23.6,74l92.5,206.9l0.1,0.1
						C-20.6,712.4,1.2,728.5,20.2,729.9L20.2,729.9z"/>
					<path class="st2" d="M329.1,739.6c-14.7,0-28.6-0.9-39-2.4L44.3,713.9l-0.2,0c-22-3.3-46.9-21.6-56.8-41.8l-106.3-189.4
						l-0.1-0.2c-9-18.6-19.1-50.2-22.5-70.5l-53.8-241l0-0.2c-3.7-22,6.1-51.3,22.2-66.9L-25.9-55.7l0.1-0.1
						C-10.8-70.1,16.1-89.5,34.4-99L247-224.7l0.2-0.1c9.3-4.9,21.7-7.5,34.7-7.5s26.1,2.8,35.8,7.9l197.3,90.8l0.2,0.1
						c18.2,9.8,44.9,29.4,59.7,43.8L760,73.7l0.1,0.1c15.9,15.6,25.3,45.1,21.4,67.2l-25.3,215.7l0,0.2
						c-3.6,20.3-14.1,51.8-23.3,70.3l-98.2,226.6l-0.1,0.2c-10,19.9-35.1,38-57.3,41.1l-212.9,42.5l-0.2,0
						C354.8,738.9,342.4,739.6,329.1,739.6L329.1,739.6z M45.9,701.2l245.9,23.3l0.2,0c9.7,1.5,23.3,2.3,37.3,2.3
						c12.6,0,24.3-0.7,33.1-1.9l212.9-42.5l0.2,0c17.8-2.4,39.6-18,47.7-34l98.2-226.6l0.1-0.2c8.7-17.5,18.6-47.4,22.2-66.8
						l25.3-215.7l0-0.2c3.2-17.7-4.9-43.2-17.6-55.8L566-80.3l-0.1-0.1c-13.9-13.7-39.3-32.4-56.7-41.7l-197.3-90.7l-0.2-0.1
						c-7.7-4.1-18.6-6.5-29.9-6.5s-21.1,2.1-28.6,6L40.6-87.8l-0.2,0.1c-17.4,9-43,27.4-57.2,41L-164,112.8l-0.1,0.1
						c-13,12.4-21.4,37.8-18.6,55.5l53.8,241l0,0.2c3.2,19.3,12.8,49.3,21.3,67.1L-1.4,666.2l0.1,0.2
						C6.6,682.5,28.1,698.4,45.9,701.2L45.9,701.2z"/>
					<path class="st2" d="M323,727.5c-13.4,0-26-1.3-35.6-3.6L69,684.7l-0.2,0c-19.8-4.9-43.5-22.4-54.2-39.9l-120-171.8l-0.1-0.2
						c-10.1-16.7-19.4-46.1-20.9-65.5l-30.2-219.8v-0.2c-1.5-20.3,7.9-48.3,21.2-63.9L-9-44l0.1-0.2C3.9-58.9,29-76.8,47-84.2
						l199.8-96.7l0.2-0.1c8.8-3.6,20.5-5.6,32.8-5.6c12.9,0,25.2,2.1,34.5,6l198,68.5l0.2,0.1c18,7.6,42.8,25.9,55.4,40.8
						L721.6,88.9l0.1,0.2c13.1,15.6,22,43.7,20.4,64.2l-3.9,209.5v0.2c-1.7,19.5-11.4,48.7-21.7,65.3L611.7,623.9l-0.1,0.2
						c-10.8,17.3-34.8,34.5-54.7,39.2l-200.5,61l-0.2,0C347.3,726.4,335.5,727.5,323,727.5L323,727.5z M71.5,672.5L290,711.7l0.2,0
						c8.5,2.1,20.5,3.3,32.8,3.3c11.5,0,22.2-1,30.2-2.8l200.5-61l0.2,0c16.6-3.8,38.1-19.2,47.1-33.6l104.8-195.6l0.1-0.2
						c9.3-14.9,18.3-42.2,19.9-59.8l3.9-209.5v-0.2c1.5-16.9-6.5-42.2-17.3-55.2L558.7-62.9l-0.1-0.2
						c-11.3-13.4-34.4-30.5-50.7-37.4l-198-68.5l-0.2-0.1c-7.7-3.3-18.6-5.1-29.9-5.1c-11.3,0-20.6,1.6-28,4.6L52-72.9l-0.2,0.1
						C35.6-66.2,12.2-49.5,0.6-36.2L-125.7,131l-0.1,0.2c-11.1,12.8-19.5,37.9-18.4,54.8l30.2,219.8v0.2c1.3,17.5,10,44.9,19,60
						l120,171.8l0.1,0.2C33.8,652.7,55.1,668.4,71.5,672.5L71.5,672.5z"/>
					<path class="st2" d="M317.1,715.4c-12.3,0-23.8-1.8-32.6-4.9l-191-55.1l-0.2-0.1c-17.2-6.3-40.3-23.4-51.5-38.1L-91.8,463
						l-0.1-0.2c-11.4-15.1-19.9-41.7-19.2-60.6l-6.6-198.6v-0.2c0.7-18.3,9.8-45.5,20.3-60.8L7.9-32.2L8-32.4
						c10.8-15.6,33.5-31.8,51.7-37l186.9-67.7l0.2-0.1c8.2-2.4,19.2-3.6,30.7-3.6c12.5,0,24.4,1.5,33.4,4.2l198.8,46.2l0.2,0.1
						c18.1,5.5,40.6,22.1,51.2,37.7l122.1,156.8l0.1,0.2c10.2,15.2,18.9,42.6,19.3,61.1L720,368.8v0.2c0.4,18.9-8.4,45.4-20.1,60.3
						L588.6,594l-0.1,0.2c-11.3,14.4-34.7,31.1-52.1,37.2l-188,79.5l-0.2,0.1C339.7,713.8,328.8,715.4,317.1,715.4L317.1,715.4z
						 M97.3,644l191,55.1l0.2,0.1c7.4,2.7,17.9,4.3,28.7,4.3c10.2,0,19.8-1.3,26.9-3.8l188-79.5l0.2-0.1
						c15.3-5.3,36.6-20.5,46.7-33.2l111.4-164.6l0.1-0.2c9.8-12.5,17.9-36.6,17.6-52.7l-17.5-203.4v-0.2
						c-0.3-16.2-8.1-41.2-17.1-54.7L551.3-45.6l-0.1-0.2c-8.9-13.2-29.3-28.3-44.7-33.1L307.8-125l-0.2-0.1
						c-7.8-2.4-18.8-3.7-30.1-3.7c-10.4,0-20,1.1-27.2,3.1L63.4-58l-0.2,0.1c-15.3,4.4-36,19.1-45.3,32.3L-87.4,149.1l-0.1,0.2
						c-9.3,13.3-17.6,38.1-18.3,54.3l6.6,198.6v0.2c-0.6,15.9,7,40.1,16.7,53L51.2,609.6l0.1,0.2C61.1,622.7,82.1,638.3,97.3,644
						L97.3,644z"/>
					<path class="st2" d="M311.5,703.2c-11.2,0-21.8-2.2-29.8-6.3l-163.5-71l-0.2-0.1c-15-7.7-36.9-23.9-48.7-36.2L-78.2,453
						l-0.1-0.1c-12.7-13.2-20.5-37.7-17.6-55.8l17-177.4l0-0.2c2.7-16.7,11.4-42.5,19.3-57.5L24.9-20.4l0.1-0.1
						c8.6-16.2,29.5-31.1,47.6-34l174-38.7l0.2,0c7.4-1.2,17.2-1.8,27.6-1.8c12.3,0,24.3,0.9,33,2.4l199.6,24l0.2,0
						c18.1,3.2,38.7,18.4,47,34.8l90.6,153.5l0.1,0.2c7.6,15.1,15.8,41,18.2,57.9l38.9,197.2l0,0.2c2.5,18.2-5.6,42.5-18.5,55.5
						l-118,133.6l-0.1,0.1c-12,11.9-34.2,27.7-49.5,35.2l-175.5,97.9l-0.1,0.1C332.4,701.2,322.2,703.3,311.5,703.2L311.5,703.2z
						 M123.1,615.5l163.5,71l0.2,0.1c6.3,3.3,15.4,5.1,24.7,5.1s17.2-1.6,23.4-4.6l175.5-97.9l0.1-0.1c14.1-6.9,35.3-21.9,46.4-32.9
						l118-133.6l0.1-0.1c10.3-10.3,17.3-31.1,15.4-45.6l-38.9-197.2l0-0.2c-2.2-15.5-9.9-40.3-17-54.3L544-28.4l-0.1-0.2
						c-6.6-13-24.2-26.1-38.6-28.7l-199.6-24l-0.2,0c-8.1-1.4-19.5-2.3-31.2-2.3c-9.7,0-18.9,0.6-25.7,1.6l-174,38.7l-0.2,0
						c-14.4,2.2-32.3,15-39.3,27.9l-84.4,182.4l-0.1,0.1c-7.4,13.8-15.7,38.4-18.2,53.9l-17,177.4l0,0.2
						c-2.3,14.4,4.3,35.3,14.4,45.9L77.4,581.4l0.1,0.1C88.3,592.8,109.2,608.3,123.1,615.5L123.1,615.5z"/>
					<path class="st2" d="M305.9,691.1c-10.2,0-19.9-2.8-27.1-7.8l-136.2-86.9c-12.9-9-33.5-24.4-45.9-34.2L-64.5,443
						c-14.2-11.3-21.2-33.6-16-50.9L-40,235.7c4.6-15.1,12.8-39.4,18.4-54.3L41.9-8.7c6.3-17,25.4-30.6,43.5-30.9l161.2-9.7
						c3.9-0.1,8.4-0.1,13.4-0.1c15.1,0,32.3,0.3,43.9,0.8L504.4-47c18.1,0.8,36.9,14.7,42.9,31.8l59.1,150.3
						c5.1,14.9,12.8,39.4,17.1,54.7L683.7,381c4.9,17.5-2.6,39.6-17,50.6L542,534.2c-12.6,9.5-33.6,24.4-46.8,33.1L332.1,683.8
						C325,688.5,315.7,691.1,305.9,691.1L305.9,691.1z M148.9,587.1L285,674c5.3,3.7,12.9,5.9,20.8,5.9c7.9,0,14.7-1.9,19.9-5.4
						L489,558.1c13-8.6,33.7-23.3,46.2-32.7l124.7-102.6c10.7-8,16.6-25.7,13.1-38.6l-60.3-191.1c-4.2-15.1-11.7-39.3-16.8-54
						L536.7-11.4c-4.3-12.6-19.3-23.8-32.7-24.4l-200.4-1.7c-11.4-0.5-28.5-0.8-43.5-0.8c-4.9,0-9.3,0-13.1,0.1L85.7-28.5
						c-13.3,0.2-28.6,11-33.3,23.6l-63.5,190.1c-5.4,14.6-13.6,38.7-18.1,53.6l-40.6,156.4c-3.9,12.8,1.7,30.6,12.1,38.9
						l161.2,119.2C115.8,563,136.1,578.1,148.9,587.1L148.9,587.1z"/>
					<path class="st2" d="M300.3,679c-9.3,0-18-3.4-24.5-9.5L167.2,566.8c-10.9-10.3-30.2-24.8-43.2-32.3L-50.7,432.9
						c-15.6-9.1-22-29.7-14.3-46l64.1-135c6.4-13.5,14.2-36.4,17.4-51L59,3.2c3.4-16,18.5-28.1,35-28.1c1.5,0,2.9,0.1,4.3,0.3
						L246.6-5.3c8.2,1.1,19.7,1.7,31.4,1.7c8.5,0,16.5-0.3,22.5-0.9l201.1-20.6c1.1-0.1,2.3-0.2,3.4-0.2c16.9,0,32.1,12.5,35.1,29
						l27.5,146.9c2.7,14.7,9.9,37.8,16,51.5L665.4,387c7.3,16.5,0.3,37-15.5,45.6l-131.2,71.6c-13.1,7.2-32.9,21.1-44,31.1
						L324,670.1C317.6,675.8,309.2,679,300.3,679L300.3,679z M94-14C82.5-14,72-5.6,69.6,5.5L27,203.1
						c-3.3,15.3-11.4,39.3-18.2,53.4l-64.1,135c-5.3,11.2-0.8,25.8,9.9,32l174.8,101.6c13.5,7.9,33.8,23,45.2,33.8l108.6,102.7
						c4.5,4.2,10.5,6.6,17,6.6s12.1-2.2,16.5-6.1l150.6-134.9c11.7-10.4,32.3-25,46.1-32.5l131.2-71.6c10.8-5.9,15.8-20.5,10.8-31.8
						l-81.7-184.9c-6.3-14.3-13.8-38.5-16.7-53.9L529.6,5.7c-2.1-11.3-12.9-20.2-24.5-20.2c-0.8,0-1.6,0-2.3,0.1L301.6,6.2
						c-6.4,0.7-14.6,1-23.6,1c-12.2,0-24.2-0.6-32.8-1.8L96.9-13.8C96-14,95-14,94-14L94-14z"/>
					<path class="st2" d="M300.8,656.8c-8.7,0-16.9-3.2-23.1-8.9l-102.5-96.5c-10.3-9.7-28.5-23.2-40.7-30.3l-164.9-95.3
						c-14.8-8.5-20.9-28-13.6-43.5l60.1-127.3c6-12.7,13.3-34.3,16.2-48.1L72.1,20.6C75.3,5.4,89.6-6,105.2-6c1.3,0,2.7,0.1,4,0.3
						l139.7,17.8c7.6,1,18.1,1.5,28.9,1.5c8.3,0,16-0.3,21.8-0.9L489-7.1c1.1-0.1,2.2-0.2,3.3-0.2c16,0,30.3,11.8,33.2,27.3
						l26.2,138.3c2.6,13.8,9.4,35.6,15.1,48.4l77.4,174c6.9,15.6,0.4,34.9-14.6,43.1l-123.5,67.7c-12.3,6.8-30.9,19.9-41.4,29.4
						L323.2,648.3C317.2,653.8,309.2,656.8,300.8,656.8L300.8,656.8z M105.2,4.4c-10.8,0-20.7,7.9-22.9,18.4L42.6,209
						c-3.1,14.4-10.7,37-17,50.4l-60.1,127.3c-4.9,10.5-0.6,24.2,9.4,30L139.7,512c12.8,7.4,31.9,21.6,42.6,31.7l102.5,96.5
						c4.2,3.9,9.8,6.1,15.9,6.1s11.4-2,15.5-5.7l141.6-127.3c11-9.9,30.4-23.7,43.3-30.7l123.5-67.7c10.2-5.6,14.8-19.2,10.1-29.8
						l-77.4-174c-6-13.5-13.1-36.2-15.8-50.7L515.4,22c-2-10.6-12.1-18.9-23-18.9c-0.7,0-1.5,0-2.2,0.1L300.8,23
						c-6.2,0.6-14.1,1-22.9,1c-11.2,0-22.3-0.6-30.3-1.6L108,4.6C107.1,4.5,106.1,4.4,105.2,4.4L105.2,4.4z"/>
					<path class="st2" d="M301.2,634.6c-8.2,0-15.9-3-21.7-8.4l-96.4-90.3c-9.6-9-26.8-21.7-38.2-28.3L-10,418.5
						c-13.9-8-19.7-26.4-12.9-40.9L33.3,258c5.6-12,12.4-32.2,15.1-45.1L85.2,38c3-14.3,16.4-25.1,31.2-25.1c1.2,0,2.5,0.1,3.7,0.2
						l131.1,16.4c6.9,0.9,16.5,1.4,26.4,1.4c8,0,15.5-0.3,21.1-0.9l177.7-19c1.1-0.1,2.1-0.2,3.2-0.2c15,0,28.5,11,31.3,25.7
						l24.9,129.8c2.5,13,8.9,33.3,14.3,45.4l73,163.1c6.6,14.7,0.5,32.9-13.6,40.7l-115.7,63.8c-11.6,6.4-28.9,18.8-38.7,27.6
						L322.5,626.6C316.8,631.8,309.2,634.6,301.2,634.6L301.2,634.6z M116.4,22.9c-10.1,0-19.3,7.4-21.4,17.2L58.1,214.9
						c-2.9,13.6-10,34.8-15.9,47.3l-56.1,119.6c-4.6,9.8-0.6,22.6,8.8,28l154.9,89.1c12,6.9,30,20.2,40.1,29.7l96.4,90.3
						c3.9,3.6,9.2,5.7,14.8,5.7s10.7-1.9,14.5-5.4l132.6-119.8c10.3-9.3,28.5-22.3,40.6-29l115.7-63.8c9.5-5.2,13.7-18,9.3-27.8
						l-73-163.1c-5.7-12.6-12.4-34-15-47.6L501.1,38.4c-1.9-9.9-11.3-17.6-21.5-17.6c-0.7,0-1.4,0-2.1,0.1l-177.7,19
						c-6,0.6-13.8,1-22.2,1c-10.3,0-20.4-0.5-27.7-1.4L118.8,23C118,22.9,117.2,22.9,116.4,22.9L116.4,22.9z"/>
					<path class="st2" d="M301.7,612.4c-7.7,0-14.9-2.8-20.3-7.8l-90.3-84.2c-9-8.4-25.1-20.2-35.8-26.3l-145-82.8
						c-13.1-7.5-18.6-24.7-12.2-38.3L50.3,261c5.2-11.2,11.5-30.1,14-42.2l34-163.5c2.8-13.5,15.4-23.7,29.3-23.7
						c1.1,0,2.3,0.1,3.4,0.2l122.5,15c6.2,0.8,15,1.2,23.9,1.2c7.8,0,15.1-0.3,20.5-0.9l166-18.2c1-0.1,2-0.2,3.1-0.2
						c14.1,0,26.7,10.3,29.3,24L519.9,174c2.4,12.1,8.4,31.1,13.5,42.3L602,368.6c6.2,13.7,0.5,30.9-12.7,38.2l-108,59.9
						c-10.8,6-27,17.6-36.1,25.9L321.7,604.8C316.3,609.7,309.2,612.4,301.7,612.4L301.7,612.4z M127.5,41.3c-9.3,0-18,7-19.9,16
						l-34,163.5c-2.6,12.7-9.2,32.5-14.7,44.3L6.9,377c-4.2,9.1-0.5,21,8.3,26l145,82.8c11.2,6.4,28.1,18.8,37.6,27.6l90.3,84.2
						c3.6,3.4,8.5,5.2,13.7,5.2c5.2,0,9.9-1.8,13.5-5.1l123.6-112.3c9.6-8.7,26.6-20.9,37.9-27.2l108-59.9
						c8.8-4.9,12.7-16.7,8.6-25.8l-68.6-152.2c-5.3-11.8-11.7-31.7-14.1-44.5L486.9,54.7c-1.8-9.1-10.5-16.3-19.9-16.3
						c-0.7,0-1.4,0-2,0.1L299,56.7c-5.8,0.6-13.4,1-21.5,1c-9.3,0-18.5-0.5-25.1-1.3l-122.5-15C129,41.3,128.3,41.3,127.5,41.3
						L127.5,41.3z"/>
					<path class="st2" d="M302.2,590.2c-7.1,0-13.8-2.6-18.9-7.2l-84.2-78c-8.4-7.8-23.4-18.7-33.3-24.4l-135-76.6
						c-12.3-6.9-17.4-23-11.5-35.8l48.1-104.2c4.8-10.4,10.6-28,12.9-39.2l31.1-152.1c2.6-12.6,14.4-22.2,27.4-22.2
						c1,0,2.1,0.1,3.1,0.2l114,13.6c5.6,0.7,13.4,1,21.4,1c7.5,0,14.6-0.3,19.8-0.9L451.3,47c1-0.1,2-0.2,3-0.2
						c13.1,0,24.9,9.6,27.4,22.4L504,181.8c2.2,11.2,7.9,28.9,12.6,39.3l64.2,141.3c5.8,12.8,0.6,28.8-11.7,35.7l-100.2,56
						c-10,5.6-25,16.4-33.5,24.2L320.9,583.1C315.9,587.7,309.2,590.2,302.2,590.2L302.2,590.2z M138.7,59.8
						c-8.6,0-16.7,6.5-18.4,14.8L89.3,226.7c-2.4,11.8-8.5,30.3-13.5,41.2L27.6,372.1c-3.9,8.4-0.4,19.4,7.7,23.9l135,76.6
						c10.5,5.9,26.2,17.4,35,25.6l84.2,78c3.3,3.1,7.8,4.8,12.6,4.8c4.8,0,9.2-1.7,12.5-4.7l114.6-104.8
						c8.9-8.1,24.7-19.5,35.2-25.4l100.2-56c8.1-4.5,11.7-15.5,7.8-23.9l-64.2-141.3c-5-11-10.9-29.5-13.3-41.3L472.7,71
						c-1.7-8.4-9.7-14.9-18.4-14.9c-0.6,0-1.3,0-1.9,0.1L298.1,73.6c-5.6,0.6-13,1-20.9,1c-8.5,0-16.5-0.4-22.5-1.1l-114-13.6
						C140.1,59.8,139.4,59.8,138.7,59.8L138.7,59.8z"/>
					<path class="st2" d="M302.6,568c-6.6,0-12.8-2.4-17.5-6.7L207,489.5c-7.8-7.2-21.6-17.2-30.9-22.4L51.1,396.8
						c-11.4-6.4-16.3-21.3-10.8-33.2l44.1-96.5c4.4-9.6,9.7-25.9,11.8-36.3l28.2-140.7c2.4-11.8,13.3-20.7,25.5-20.7
						c0.9,0,1.9,0.1,2.8,0.2l105.4,12.2c5,0.6,11.7,0.9,18.9,0.9c7.2,0,14.1-0.3,19.2-0.9l142.5-16.6c0.9-0.1,1.9-0.2,2.8-0.2
						c12.1,0,23.1,8.9,25.5,20.7l21,104c2.1,10.4,7.4,26.6,11.8,36.3l59.9,130.4c5.5,11.9,0.6,26.8-10.8,33.3l-92.4,52.1
						c-9.2,5.2-23.1,15.3-30.8,22.4l-105.5,97.2C315.4,565.6,309.2,568,302.6,568L302.6,568z M149.9,78.2c-7.9,0-15.3,6-16.8,13.7
						l-28.2,140.7c-2.2,10.9-7.8,28.1-12.4,38.2l-44.1,96.5c-3.5,7.7-0.3,17.7,7.1,21.9l125.1,70.3c9.7,5.5,24.3,16,32.5,23.6
						l78.1,71.8c3,2.8,7.1,4.3,11.5,4.3s8.5-1.5,11.5-4.3l105.5-97.2c8.2-7.5,22.8-18.1,32.5-23.6l92.4-52.1
						c7.4-4.2,10.6-14.2,7.1-21.9l-59.9-130.4c-4.6-10.1-10.2-27.3-12.4-38.2l-21-104c-1.5-7.6-8.9-13.6-16.8-13.6
						c-0.6,0-1.2,0-1.8,0.1L297.2,90.5c-5.4,0.6-12.6,1-20.2,1c-7.6,0-14.6-0.3-19.9-1L151.7,78.3C151.1,78.2,150.5,78.2,149.9,78.2
						L149.9,78.2z"/>
					<path class="st2" d="M303.1,545.8c-6.1,0-11.8-2.2-16.1-6.1l-72-65.6c-7.2-6.5-19.9-15.7-28.4-20.4L71.5,389.6
						c-10.6-5.9-15.1-19.7-10.1-30.7l40.2-88.8c4-8.8,8.8-23.8,10.6-33.3l25.4-129.3c2.1-11,12.3-19.3,23.6-19.3
						c0.8,0,1.7,0,2.5,0.1l96.8,10.8c4.3,0.5,10.2,0.7,16.4,0.7c7,0,13.7-0.3,18.6-0.9l130.8-15.8c0.9-0.1,1.8-0.2,2.7-0.2
						c11.2,0,21.3,8.2,23.5,19l19.7,95.4c2,9.5,6.9,24.4,11,33.2l55.5,119.5c5.1,11,0.7,24.8-9.8,30.8l-84.7,48.2
						c-8.4,4.8-21.1,14.1-28.2,20.7l-96.5,89.7C315,543.6,309.2,545.8,303.1,545.8L303.1,545.8z M161,96.7
						c-7.2,0-13.9,5.5-15.3,12.5l-25.4,129.3c-2,10.1-7,25.8-11.2,35.2L69,362.4c-3.2,7-0.2,16.1,6.6,19.9l115.2,64.1
						c9,5,22.4,14.7,30,21.6l72,65.6c2.8,2.5,6.5,3.9,10.4,3.9s7.8-1.4,10.5-4l96.5-89.7c7.5-7,20.9-16.8,29.8-21.8l84.7-48.2
						c6.7-3.8,9.6-12.9,6.4-19.9l-55.5-119.5c-4.3-9.3-9.5-25-11.6-35.1l-19.7-95.4c-1.4-6.9-8.1-12.3-15.3-12.3
						c-0.6,0-1.1,0-1.7,0.1l-130.8,15.8c-5.2,0.6-12.2,1-19.6,1c-6.5,0-12.7-0.3-17.4-0.8l-96.9-10.8
						C162.1,96.7,161.6,96.7,161,96.7L161,96.7z"/>
					<path class="st2" d="M303.6,523.6c-5.5,0-10.7-2-14.7-5.5L223,458.7c-6.4-5.8-18.3-14.3-25.9-18.4L91.8,382.4
						c-9.7-5.4-14-18-9.5-28.1l36.2-81.1c3.5-7.9,7.9-21.8,9.5-30.4l22.5-117.9c1.9-10.2,11.2-17.8,21.6-17.8c0.7,0,1.5,0,2.2,0.1
						l88.3,9.3c3.7,0.4,8.7,0.6,13.9,0.6c6.7,0,13.2-0.3,17.9-0.9l119.1-15c0.9-0.1,1.7-0.2,2.6-0.2c10.2,0,19.5,7.5,21.6,17.4
						l18.4,86.8c1.8,8.5,6.4,22.3,10.1,30.2l51.1,108.6c4.7,10.1,0.7,22.8-8.9,28.3l-76.9,44.3c-7.5,4.3-19.2,13-25.6,19l-87.5,82.2
						C314.6,521.6,309.3,523.6,303.6,523.6L303.6,523.6z M172.2,115.1c-6.5,0-12.6,5-13.8,11.3l-22.5,117.9
						c-1.8,9.2-6.3,23.6-10.1,32.1l-36.2,81.1c-2.8,6.3-0.1,14.5,6,17.9l105.2,57.8c8.2,4.5,20.5,13.3,27.4,19.5l65.9,59.4
						c2.5,2.2,5.8,3.5,9.3,3.5c3.5,0,7-1.3,9.5-3.6l87.5-82.2c6.8-6.4,18.9-15.4,27-20.1l76.9-44.3c6-3.5,8.6-11.7,5.6-18
						l-51.1-108.6c-4-8.4-8.8-22.8-10.7-31.9L429.9,120c-1.3-6.2-7.3-11-13.8-11c-0.5,0-1.1,0-1.6,0.1l-119.1,15
						c-5,0.6-11.9,1-18.9,1c-5.6,0-10.8-0.2-14.8-0.6l-88.3-9.3C173.1,115.1,172.6,115.1,172.2,115.1L172.2,115.1z"/>
					<path class="st2" d="M304,501.4c-5,0-9.7-1.8-13.3-4.9l-59.8-53.3c-5.8-5.2-16.6-12.7-23.5-16.5l-95.3-51.6
						c-8.9-4.8-12.8-16.3-8.8-25.6l32.2-73.4c3.1-7.2,7-19.7,8.4-27.4l19.6-106.5c1.7-9.3,10.2-16.3,19.7-16.3c0.6,0,1.3,0,1.9,0.1
						L265,134c3.1,0.3,7.1,0.5,11.5,0.5c6.3,0,12.8-0.3,17.2-0.9L401,119.2c0.8-0.1,1.7-0.2,2.5-0.2c9.2,0,17.7,6.7,19.6,15.7
						l17.1,78.3c1.7,7.6,5.9,20.1,9.3,27.1l46.7,97.7c4.4,9.1,0.8,20.7-7.9,25.8l-69.1,40.4c-6.8,3.9-17.2,11.8-22.9,17.2
						l-78.5,74.7C314.1,499.5,309.3,501.4,304,501.4L304,501.4z M183.4,133.5c-5.8,0-11.2,4.4-12.3,10.1l-19.6,106.5
						c-1.5,8.3-5.5,21.3-8.9,29.1l-32.2,73.4c-2.5,5.7,0,12.9,5.4,15.8l95.3,51.6c7.4,4,18.6,11.9,24.9,17.5l59.8,53.3
						c2.2,1.9,5.1,3,8.2,3s6.3-1.2,8.5-3.3l78.5-74.7c6.1-5.8,17-14,24.3-18.3l69.1-40.4c5.3-3.1,7.6-10.4,4.9-16l-46.7-97.7
						c-3.6-7.6-8.1-20.5-9.9-28.8l-17.1-78.3c-1.2-5.5-6.5-9.7-12.2-9.7c-0.5,0-1,0-1.5,0.1L294.6,141c-4.8,0.6-11.5,1-18.2,1
						c-4.6,0-8.9-0.2-12.2-0.5l-79.7-7.9C184.1,133.5,183.8,133.5,183.4,133.5L183.4,133.5z"/>
					<path class="st2" d="M304.5,479.2c-4.4,0-8.6-1.5-11.9-4.4l-53.7-47.1c-5.2-4.6-14.9-11.2-21-14.5l-85.3-45.3
						c-8.1-4.3-11.7-14.6-8.1-23l28.2-65.7c2.7-6.4,6.1-17.6,7.3-24.5l16.8-95.1c1.6-9,10.1-15.7,19.4-14.8l71.1,6.5
						c2.5,0.2,5.6,0.3,9,0.3c6.1,0,12.2-0.4,16.5-1l95.7-13.5c0.8-0.1,1.6-0.2,2.4-0.2c8.3,0,15.9,6,17.7,14l15.8,69.7
						c1.5,6.8,5.4,17.8,8.5,24.1l42.4,86.8c4,8.2,0.9,18.7-7,23.4l-61.4,36.6c-6,3.6-15.3,10.7-20.3,15.5L317,474.3
						C313.7,477.5,309.3,479.3,304.5,479.2L304.5,479.2z M194.5,152c-5.1,0-9.9,3.9-10.7,8.9L167,256.1c-1.3,7.4-4.8,19.1-7.8,26.1
						l-28.2,65.7c-2.1,5,0.1,11.3,4.9,13.8l85.3,45.3c6.7,3.5,16.7,10.5,22.4,15.4l53.7,47.1c1.9,1.7,4.4,2.6,7.1,2.6
						c2.9,0,5.6-1.1,7.5-2.9l69.5-67.1c5.4-5.2,15.1-12.6,21.6-16.5l61.4-36.6c4.6-2.8,6.6-9.2,4.2-14L426.3,248
						c-3.3-6.8-7.4-18.3-9-25.6l-15.8-69.7c-1.1-4.8-5.7-8.4-10.7-8.4c-0.5,0-0.9,0-1.4,0.1l-95.7,13.5c-4.6,0.6-11.1,1-17.5,1
						c-3.7,0-7-0.1-9.7-0.4l-71.1-6.5C195.1,152,194.8,152,194.5,152L194.5,152z"/>
					<path class="st2" d="M307.5,466.5c-2.3,0-4.4-0.8-6-2.2l0-0.1c-2.5-1.8-8.8-7.1-27.6-23.1c-8.4-7.1-17.7-15.1-20.3-17.2h-0.1
						l-0.8-0.7c-3.5-3.1-12.7-7.8-18.8-10.9c-1.7-0.9-3.3-1.7-4.5-2.3l0,0c-2.2-1-8.9-4.5-32.8-17c-18-9.4-40.1-21-44-22.8h-0.1
						l-0.7-0.4c-4.2-2.2-17.5-10.2-13.5-19.5h0c0.5-1.8,1.8-4.8,4.2-10.8c2.6-6.3,6-14.6,9.3-22.6c4.2-10.1,8.9-21.5,10.1-24.6
						l0-0.1l0.4-1c1.9-4.3,3.5-14.5,4.5-21.3c0.3-1.9,0.6-3.6,0.8-5h0c0.3-2.4,1.5-9.8,6-36.6c3.3-19.6,7.4-43.6,8.1-48.5l0-0.1
						l0.2-1.1c0.8-4.4,4.1-18.9,13.6-18.9c0.1,0,0.3,0,0.4,0c0.1,0,0.2,0,0.3,0c2.3,0,15.7,1,35.9,2.6c11,0.9,23.2,1.8,26.6,2
						l0.1-0.1l1.1,0.1c0.5,0,1.1,0.1,1.8,0.1c5.2,0,13.7-1.3,19.9-2.3c1.9-0.3,3.6-0.6,5-0.8v0c2.4-0.5,9.8-1.6,36.6-5.6
						c19.6-2.9,43.8-6.5,48.6-7.3l0.1-0.1l1.1-0.2c1.5-0.2,3.9-0.5,6.6-0.5c12.1,0,15.1,5.2,15.8,8.3c0.3,0.8,0.6,1.8,0.9,3
						c0.5,2,1.2,4.8,2,8.1c1.6,6.6,3.7,15.4,5.8,23.7c2.6,10.7,5.5,22.7,6.3,25.9l0.1,0.1l0.2,1.1c1,4.6,5.7,13.8,8.8,19.9
						c0.9,1.7,1.7,3.3,2.3,4.5l0,0c1.2,2.1,4.5,8.9,16.6,33.2c8.8,17.8,19.7,39.6,21.9,43.9l0.1,0l0.5,1c2.1,4.3,8.2,18.6-0.6,23.7
						l0,0c-1.5,1.2-4.3,2.9-9.7,6.3c-5.8,3.6-13.5,8.3-20.8,12.8c-9.4,5.7-19.8,12.2-22.6,14l0,0.1l-0.9,0.6
						c-4.1,2.4-11.4,9.7-16.2,14.5c-1.4,1.4-2.6,2.6-3.6,3.6l0,0c-1.6,1.8-7,7.1-26.4,26c-14.2,13.9-31.6,30.9-35,34.5v0.1l-0.8,0.8
						C321.4,460.2,314.2,466.5,307.5,466.5L307.5,466.5z M301.4,455.5l4.5,3.9c0.3,0.3,0.8,0.6,1.7,0.6c2.9,0,7.7-2.8,12.2-7.2l0,0
						c1.2-1.5,4.2-4.4,11.5-11.5c6.8-6.7,15.8-15.5,24.2-23.8c11.7-11.4,23.7-23.2,25.9-25.5l0-0.1l0.5-0.5c1-0.9,2.2-2.1,3.5-3.5
						c5.4-5.4,12.7-12.7,17.5-15.5l0,0.1c2.1-1.5,7.6-4.9,23.5-14.7c9.1-5.6,19.8-12.2,25.8-15.9l-0.3-0.1l5.1-3
						c2.8-1.6,1-9.1-2-15.3l0,0c-1-1.6-2.9-5.4-7.4-14.5c-4.3-8.6-9.9-19.8-15.1-30.4c-7.3-14.6-14.8-29.7-16.2-32.6l-0.1,0
						l-0.3-0.6c-0.6-1.2-1.4-2.7-2.2-4.4c-3.4-6.8-8.2-16-9.4-21.4h0.1c-0.8-2.5-2.3-8.8-6.7-26.9c-2.5-10.4-5.5-22.6-7.2-29.4
						l-0.2,0.2l-1.3-5.8c-0.5-2-4-3.3-9.5-3.3c-2.3,0-4.4,0.2-5.7,0.4v0c-1.9,0.4-6,1.1-16.1,2.6c-9.5,1.4-21.9,3.3-33.6,5
						c-16.1,2.4-32.8,4.8-35.9,5.4l-0.1,0l-0.7,0.1c-1.3,0.2-3,0.5-4.9,0.8c-7.3,1.2-17.6,2.7-23,2.3h-0.1c-1.5,0-11.5-0.8-27.8-2
						c-10.6-0.8-23.2-1.8-30.2-2.3l0.1,0.3l-5.9-0.5c-0.1,0-0.2,0-0.2,0c-2.7,0-5.8,5.8-7.2,13.5h0c-0.2,1.9-0.9,6-2.5,16.1
						c-1.6,9.5-3.7,21.8-5.6,33.5c-2.7,16.1-5.5,32.7-6,35.9l0,0.1l-0.1,0.7c-0.2,1.3-0.5,3-0.8,4.9c-1.2,7.5-2.8,17.8-5,22.8
						l-0.1,0c-0.8,2.4-3.3,8.5-10.4,25.7c-4.3,10.3-9.3,22.5-11.8,28.8h0.2l-2,4.6c-1.3,3,4.5,8,10.6,11.2l0,0
						c2.8,1.2,11.5,5.8,44.8,23.2c14.4,7.5,29.2,15.3,32.1,16.7h0.1l0.6,0.3c1.2,0.6,2.7,1.4,4.4,2.3c6.8,3.4,16,8.2,20.2,11.8
						l0,0.1c2.1,1.5,7,5.7,21.2,17.8c8.1,6.9,17.7,15.1,23.1,19.6L301.4,455.5L301.4,455.5z"/>
					<path class="st2" d="M314.1,455.1c-1.2,0-2.3-0.4-3.3-1c-2-1.1-6.9-5.1-25.2-20.1c-7.5-6.1-15.8-13-18-14.6h-0.2l-0.7-0.7
						c-2.4-2.1-10.7-5.5-16.7-8c-3.8-1.6-7.1-2.9-9-3.9l0,0c-2-0.8-7.8-3.8-29.5-14.9c-15-7.7-35.3-18-39.2-19.8l-0.2,0l-0.9-0.5
						c-1-0.6-2.7-1.2-4.4-2c-7.3-3.1-12.9-5.7-14.5-9.7c-0.6-1.4-0.6-2.9,0-4.3c0.7-3,3.4-10.1,11.2-29.8c3.5-9,7.5-19.1,8.3-21.7
						l-0.1-0.2l0.4-0.9c1.3-2.9,2-11.9,2.5-18.4c0.3-4.1,0.6-7.6,1-9.7l0,0c0.2-2.1,1.2-8.6,5-32.7c2.7-16.7,6.2-39.2,6.7-43.4
						l-0.1-0.2l0.2-1c0.2-1.2,0.4-2.9,0.5-4.8c0.7-8,1.6-18,8.2-18.2c0.6-0.1,1.2-0.1,1.8-0.1c4.4,0,17.7,0.8,30.5,1.5
						c10.4,0.6,20.3,1.2,23.2,1.2l0.2-0.1l1,0.1c0.2,0,0.4,0,0.6,0c3.7,0,11.4-1.9,17.6-3.4c4-1,7.4-1.8,9.6-2.1l0,0
						c2.1-0.5,8.6-1.5,32.6-5.3c16.7-2.6,39.2-6.2,43.4-7l0.1-0.1l1-0.1c1.2-0.2,2.9-0.6,4.7-1c3.7-0.9,8.4-1.9,12.1-1.9
						c5.4,0,7.2,2.4,7.8,4.2c0.4,0.8,0.7,1.9,1.1,3.1c0.5,1.7,1.2,4,2,7.2c1.6,5.8,3.6,13.5,5.5,20.8c2.4,9.3,5.2,19.8,6,22.4
						l0.2,0.2l0.2,1c0.7,3.1,5.4,10.7,8.8,16.3c2.1,3.5,4,6.5,4.9,8.4l0,0c1.1,1.8,4.1,7.7,15.1,29.4c7.7,15.1,18,35.4,20.1,39.1
						l0.2,0.1l0.4,0.9c0.5,1.1,1.4,2.6,2.4,4.2c4.1,6.8,7.1,12.3,6,16.4c-0.4,1.5-1.3,2.7-2.6,3.5l0,0c-2.5,2.1-9.1,6.3-26.4,17.5
						c-8.1,5.2-17.2,11-19.5,12.6l-0.1,0.2l-0.8,0.5c-2.7,1.6-8.5,8.4-12.8,13.4c-2.7,3.1-5,5.8-6.5,7.3l0,0
						c-1.4,1.6-6,6.3-23.3,23.5c-12,11.9-28.1,28-31,31.2l0,0.2l-0.7,0.7c-0.8,0.8-2,2.2-3.3,3.6
						C322.9,450.4,318.5,455.1,314.1,455.1L314.1,455.1z M310.2,445.8l3.9,3.5c2.1-0.1,7.4-6.2,9.6-8.8c1.4-1.6,2.6-3,3.6-4h0
						c1.9-2.4,8.5-8.9,31.6-32c10.3-10.3,21-21,22.8-23l0.1-0.1l0.4-0.4c1.3-1.3,3.7-4,6.1-6.9c4.9-5.8,10.5-12.3,14.1-14.5
						c1.6-1.3,6.2-4.2,20.4-13.4c7.7-4.9,17.4-11.1,22.5-14.6l-0.5-0.3l4.5-2.7c0.6-1.9-3.8-9.2-5.4-11.9c-1.1-1.8-2-3.4-2.7-4.7h0
						c-1.7-2.6-5.9-10.8-20.7-40c-6.6-13-13.5-26.5-14.8-28.8l-0.1-0.1l-0.3-0.6c-0.8-1.7-2.7-4.7-4.7-8c-4-6.5-8.5-13.8-9.5-17.9
						c-0.8-2-2.1-7.2-6.4-23.6c-2.3-8.8-5.2-20-6.9-25.9l-0.4,0.4l-1.2-5.1c-0.2-0.1-0.8-0.3-2.2-0.3c-3,0-7.3,1-10.7,1.8
						c-2.1,0.5-3.8,0.9-5.2,1.1l0,0c-3,0.8-12.1,2.2-44.4,7.3c-14.4,2.3-29.3,4.6-32,5.1l-0.1,0.1l-0.6,0.1c-1.8,0.3-5.3,1.1-9,2
						c-7.3,1.8-15.6,3.7-19.8,3.5c-0.3,0-0.6,0-0.9,0c-2.8,0-12.5-0.6-23.7-1.2c-9.8-0.6-20.7-1.2-26.8-1.5l0.3,0.5l-5.2-0.5
						c-1.6,1.2-2.3,9.6-2.6,12.8c-0.2,2.1-0.3,3.9-0.6,5.3h0c-0.2,3.1-1.6,12.2-6.8,44.5c-2.3,14.4-4.7,29.3-5,32l0,0.2l-0.1,0.6
						c-0.3,1.8-0.6,5.4-0.9,9.2c-0.6,7.6-1.3,16.2-2.8,20.1c-0.5,2-2.5,7.1-8.7,22.8c-3.3,8.5-7.5,19.2-9.7,25l0.6-0.1l-2.1,4.8
						c0.7,1.9,8.4,5.2,11.4,6.4c1.9,0.8,3.6,1.5,4.8,2.2c2.4,0.9,9.9,4.7,40.3,20.2c13,6.6,26.4,13.5,28.9,14.6h0.2l0.5,0.3
						c1.6,0.9,5,2.2,8.5,3.7c7,2.9,15,6.2,18.2,8.9c1.8,1.1,6,4.6,19,15.3c7,5.8,16,13.1,20.8,16.9L310.2,445.8L310.2,445.8z"/>
					<path class="st2" d="M321.9,444.1c-0.6,0-1.2-0.1-1.8-0.4c-1.6-0.5-5.2-3.1-22.9-16.9c-6.2-4.9-13.9-10.8-15.8-12.1l-0.3,0
						l-0.6-0.6c-1.8-1.6-10.9-4.6-16.9-6.6c-4.7-1.6-8.9-2.9-10.9-3.9c-1.5-0.5-6.1-2.7-26.3-12.8c-13.4-6.7-31.6-15.7-34.9-17
						l-0.3,0l-0.8-0.4c-1.2-0.6-4.5-1.4-7.8-2.2c-9.2-2.2-14.9-3.8-16.5-7c-0.4-0.7-0.5-1.5-0.4-2.3c0-2,1.8-7.2,9-27.1
						c2.7-7.4,6-16.5,6.6-18.7l-0.1-0.3l0.3-0.8c0.9-2.2,1-11.8,1.1-18.1c0-5,0.1-9.3,0.4-11.5c0-1.6,0.7-6.6,4-29.1
						c2.2-14.8,5.1-34.8,5.3-38.4l-0.1-0.3l0.2-0.9c0.2-1.3,0-4.7-0.3-8.1c-0.7-9.3-1-15.1,1.4-17.7c0.6-0.7,1.4-1.1,2.3-1.3
						c1-0.4,2.7-0.4,5.4-0.4c5.4,0,14.4,0.3,23.1,0.6c7.5,0.3,14.6,0.5,18.2,0.5c0.9,0,1.4,0,1.7,0l0.3-0.2l0.9,0.1
						c0.1,0,0.1,0,0.2,0c2.9,0,11.2-2.7,17.4-4.6c4.8-1.5,8.9-2.8,11.1-3.2c1.5-0.4,6.5-1.3,28.8-5.1c14.8-2.5,34.7-5.9,38.2-6.8
						l0.2-0.2l0.9-0.1c1.3-0.2,4.5-1.5,7.6-2.8c5.5-2.3,11.1-4.6,14.7-4.6c2.5,0,3.7,1.1,4.3,2.1c0.9,1.1,1.8,3.7,3.5,9.5
						c1.5,5,3.4,11.6,5.2,17.9c2.2,7.6,4.9,16.9,5.7,19l0.3,0.2l0.2,0.9c0.5,2.4,6.1,10.1,9.8,15.3c2.9,4.1,5.4,7.6,6.5,9.6
						c0.9,1.3,3.3,5.8,13.8,25.9c6.9,13.3,16.3,31.2,18.3,34.2l0.3,0.1l0.4,0.8c0.6,1.2,2.8,3.8,5,6.3c6.1,7.2,9.8,11.8,9.2,15.3
						c-0.1,0.8-0.5,1.5-1,2.1c-1.2,1.7-5.8,4.9-23.3,16.7c-6.5,4.4-14.6,9.9-16.4,11.3l-0.1,0.3l-0.7,0.4c-2.1,1.2-7.8,9-11.5,14.1
						c-3,4-5.5,7.5-7.1,9.1c-1,1.2-4.5,4.9-20.3,21.1c-10.5,10.7-24.6,25.2-26.9,27.9l0,0.3l-0.6,0.6c-0.9,0.9-2.7,3.9-4.5,6.7
						C329,439,325.6,444.2,321.9,444.1L321.9,444.1L321.9,444.1z M319.1,436.1l3,2.6c1.9-1.4,5.7-7.5,7.7-10.8
						c2.3-3.8,3.8-6.2,5.1-7.5c1.5-2,6.8-7.6,27.6-28.9c8.6-8.8,18.3-18.7,19.8-20.4l0.1-0.2l0.4-0.4c1.2-1.2,4-5,6.7-8.6
						c5.8-7.8,9.9-13.2,12.6-15.2c1.2-1.1,4.7-3.6,17.4-12.2c6.6-4.5,15.1-10.2,19.3-13.3l-0.8-0.4l3.4-2c-0.7-2.3-5.4-7.7-7.9-10.7
						c-2.9-3.4-4.7-5.6-5.6-7.2c-1.5-2-5.1-8.8-18.9-35.2c-5.7-10.9-12.1-23.2-13.3-25.1l-0.2-0.1l-0.2-0.5
						c-0.7-1.5-3.5-5.4-6.1-9.1c-5.7-7.9-9.6-13.5-10.5-16.7c-0.7-1.5-2-5.6-6.2-20.3c-2.2-7.7-5-17.5-6.6-22.5l-0.6,0.6l-0.9-3.8
						c-2.6,0.1-8.4,2.5-12.6,4.2c-4.1,1.7-6.8,2.8-8.6,3.1c-2.4,0.8-9.9,2.1-39.4,7.1c-12.1,2.1-25.8,4.4-28,4.9l-0.2,0.1l-0.5,0.1
						c-1.7,0.2-6.2,1.7-10.5,3c-9.1,2.9-15.8,4.9-19.1,4.8c-0.6,0.1-1.4,0.1-2.8,0.1c-3.7,0-10.8-0.3-18.4-0.5
						c-8.7-0.3-17.6-0.6-22.9-0.6c-0.2,0-0.4,0-0.6,0l0.4,0.8l-3.9-0.4c-0.7,2.3-0.2,9.4,0.1,13.3c0.3,4.4,0.5,7.3,0.3,9.1
						c0,2.5-1,10.1-5.4,39.6c-1.8,12.2-3.8,25.9-4,28.2l0,0.2l-0.1,0.5c-0.3,1.7-0.3,6.4-0.4,10.9c-0.1,9.8-0.2,16.5-1.3,19.7
						c-0.3,1.6-1.7,5.6-6.9,20.1c-2.7,7.5-6.2,17.1-7.8,22.1l0.9-0.1l-1.6,3.6c1.9,1.4,8.8,3.1,12.7,4c4.3,1,7,1.7,8.7,2.5
						c2.1,0.6,8.4,3.7,36.1,17.4c11,5.4,23.4,11.6,25.5,12.5h0.2l0.5,0.3c1.5,0.8,6,2.3,10.3,3.7c9.3,3.1,15.6,5.3,18.3,7.3
						c1.4,0.7,4.8,3.3,16.9,12.8c6.3,4.9,14.4,11.2,18.6,14.3L319.1,436.1L319.1,436.1z"/>
					<path class="st2" d="M330.1,433.3c-0.3,0-0.5,0-0.8-0.1c-1.7-0.1-4.5-1.8-20.6-13.6c-5.3-3.9-11.9-8.7-13.5-9.5l-0.4,0
						l-0.6-0.5c-1.5-1.2-11.6-3.9-17.7-5.6c-6.5-1.7-10.6-2.9-12.4-3.7c-1.6-0.5-5.9-2.5-23-10.6c-11.8-5.6-27.7-13.2-30.6-14.1
						l-0.4,0.1l-0.7-0.4c-1-0.5-6.6-1.2-10.6-1.6c-12.1-1.4-17.5-2.2-19-4.8c-0.2-0.4-0.4-0.8-0.4-1.2c-0.5-1.5,0.4-5,6.5-23.9
						c2.1-6.3,4.6-14,4.9-15.8l-0.1-0.4l0.3-0.7c0.7-1.8,0.2-12.3-0.2-18.6c-0.4-6.7-0.6-11-0.3-12.9c0-1.6,0.5-6.4,3-25.1
						c1.7-12.9,4-30.5,4-33.4l-0.2-0.3l0.1-0.7c0.2-1.2-0.9-6.6-1.7-10.5c-2.4-11.8-3.3-17.2-1.4-19.4c0.3-0.4,0.6-0.6,1-0.8
						c1.1-0.9,4-1.2,19.7-1.2h10c2.8,0,10.1,0,11.7-0.2l0.4-0.2l0.8,0.1l0,0c2.3,0,11.5-3.6,17.6-5.9c6.2-2.4,10.3-3.9,12.2-4.3
						c1.5-0.5,6.2-1.5,24.8-4.9c12.8-2.4,30.2-5.6,33-6.6l0.3-0.3l0.8-0.1c1.2-0.2,6-2.9,9.5-4.9c8.1-4.6,13.6-7.6,16.6-7.6
						c1,0,1.8,0.3,2.4,0.8c1.5,0.8,2.9,4.6,9,23.4c2,6.3,4.5,14.1,5.3,15.6l0.3,0.3l0.2,0.7c0.5,1.9,7.1,10,11.1,14.9
						c4.2,5.2,6.9,8.6,7.9,10.3c1,1.3,3.3,5.5,12.3,22.1c6.2,11.4,14.7,27,16.4,29.4l0.3,0.2l0.3,0.7c0.5,1,4.6,4.8,7.6,7.5
						c9,8.2,12.8,12.1,12.5,15c0,0.4-0.2,0.8-0.4,1.2c-0.5,1.6-3.5,4-19.4,15.5c-5.4,3.9-12,8.7-13.2,9.9l-0.2,0.4l-0.6,0.4
						c-1.6,1-7.4,9.8-10.8,15.1c-3.6,5.6-6,9.2-7.4,10.7c-0.9,1.3-4.2,4.8-17.2,18.6c-9,9.4-21.1,22.3-22.9,24.7l-0.1,0.4l-0.5,0.5
						c-0.8,0.8-3.1,5.9-4.8,9.6C335.7,428.8,333.3,433.3,330.1,433.3L330.1,433.3z M328,426.4l2.1,1.9c1.8-2.2,4.9-9.2,6.9-13.5
						c2.6-5.7,4.2-9.1,5.5-10.6c1.1-1.8,5.3-6.5,23.6-25.8c7.3-7.7,15.6-16.4,16.7-17.9l0.1-0.3l0.3-0.3c1-1,4.2-5.8,6.9-10.1
						c5.7-8.8,9.5-14.4,11.8-16.2c1-1.2,3.9-3.4,14.1-10.8c5.3-3.8,12.7-9.2,16.1-12l-1-0.5l2.4-1.5c-1.6-2.4-7.2-7.5-10.7-10.8
						c-4.6-4.2-7.4-6.8-8.4-8.5c-1.4-1.6-4.5-7.1-17.2-30.4c-5.1-9.3-10.8-19.9-11.9-21.4l-0.2-0.2l-0.2-0.4
						c-0.6-1.3-4.2-5.7-7.4-9.7c-6.6-8.1-10.8-13.5-11.8-16.3c-0.8-1.3-2-4.8-5.9-16.8c-2-6.2-4.8-14.9-6.4-19l-0.8,0.8l-0.6-2.7
						c-2.8,0.8-9.4,4.5-13.5,6.9c-5.4,3.1-8.7,4.9-10.7,5.4c-1.9,0.8-8.1,2.1-34.2,7c-10.4,1.9-22.2,4.1-24,4.7l-0.2,0.1l-0.5,0.1
						c-1.4,0.2-6.8,2.3-11.5,4.1c-9.6,3.7-16.2,6.1-19.1,6.2c-1.2,0.3-3.9,0.4-13,0.4h-10c-3,0-10.9,0-14.9,0.2l0.5,1l-2.8-0.3
						c-0.1,2.9,1.4,10.3,2.3,15c1.2,6.1,2,9.8,1.8,11.8c0.2,2.1-0.5,8.4-4,34.7c-1.4,10.5-3,22.4-3,24.3l0.1,0.3l-0.1,0.5
						c-0.3,1.4,0.1,7.1,0.3,12.2c0.6,10.5,0.8,17.3,0,20.1c-0.1,1.5-1.2,5-5.1,17c-2,6.2-4.9,14.9-6,19.2l1.2-0.2l-1.1,2.6
						c2.7,1,10.3,1.9,15,2.4c6.2,0.7,10,1.2,11.8,1.9c2.4,0.6,9.4,3.8,31.8,14.5c9.6,4.6,20.4,9.7,22.2,10.3l0.3,0l0.4,0.2
						c1.3,0.7,6.8,2.1,11.7,3.5c10.1,2.7,16.7,4.5,19.1,6.2c1.4,0.6,4.4,2.7,14.6,10.1c5.3,3.8,12.7,9.3,16.4,11.6L328,426.4
						L328,426.4z"/>
					<path class="st2" d="M337.9,422.7c-1.9,0-6.1-2.5-17.6-10.1c-4.4-2.9-9.9-6.6-11.2-7l-0.5,0L308,405c-1.4-1-11.8-3.2-18.7-4.7
						c-7.5-1.6-12-2.6-13.7-3.3c-1.7-0.4-6.4-2.5-19.6-8.4c-10.1-4.6-23.9-10.8-26.3-11.3l-0.4,0.1l-0.6-0.3
						c-1.1-0.4-7.9-0.6-13.3-0.7c-16.8-0.4-20.4-0.9-21.6-2.8c-0.1-0.1-0.2-0.3-0.2-0.4c-1.1-1.5-0.5-4.8,3.9-20.6
						c1.4-5.1,3.2-11.5,3.2-12.9l-0.1-0.5l0.3-0.6c0.5-1.7-0.6-12.3-1.3-19.3c-0.8-7.6-1.2-12.2-1.1-14c-0.1-1.8,0.4-6.9,2-21.3
						c1.2-11,2.9-26.1,2.6-28.5l-0.2-0.4l0.1-0.6c0-1.2-1.9-7.7-3.4-12.9c-4.4-14.9-5.5-19.5-4.1-21.4c0.1-0.2,0.2-0.3,0.4-0.4
						c1-1.4,3.7-1.9,20.8-2.7c5.3-0.2,11.9-0.6,13.2-0.9l0.4-0.3l0.6,0.1c1.7,0,11.5-4.4,17.9-7.2c7-3.1,11.2-5,13-5.4
						c1.6-0.7,6.7-1.8,20.8-4.7c10.9-2.3,25.7-5.3,27.9-6.3l0.3-0.3l0.6-0.1c1.2-0.3,6.7-4.2,11.2-7.2c10.5-7.2,15.7-10.7,18.2-10.7
						c0.5,0,0.9,0.1,1.3,0.3c1.7,0.4,3.1,3.3,9,19c1.9,5,4.2,11.1,5,12.3l0.4,0.3l0.1,0.6c0.6,1.6,7.7,9.6,12.4,14.8
						c5.1,5.7,8.2,9.2,9.1,10.7c1.1,1.4,3.7,5.8,10.9,18.3c5.5,9.6,13,22.8,14.6,24.5l0.4,0.2l0.3,0.6c0.7,1,6,5.1,10.3,8.4
						c13.3,10.2,16,12.7,15.9,15c0,0.2,0,0.3-0.1,0.5c0,1.8-1.9,3.7-15.2,14.4c-4.2,3.3-9.3,7.4-10.1,8.5l-0.2,0.5l-0.6,0.3
						c-1.4,1.1-6.7,10.3-10.2,16.4c-3.9,6.6-6.2,10.6-7.4,12c-0.9,1.5-4.4,5.3-14.1,16c-7.5,8.2-17.6,19.4-18.8,21.5l-0.1,0.4
						l-0.5,0.4c-0.7,0.9-3,7.3-4.8,12.4c-5.8,16.6-7.4,19.7-9.8,19.8C338.4,422.6,338.1,422.7,337.9,422.7L337.9,422.7L337.9,422.7z
						 M310.1,401.8c1.5,0.5,4.5,2.4,12.3,7.5c4.6,3,11.2,7.4,14.2,8.9l0.2-1.5l1.5,1.3c1.6-2.9,4.6-11.3,6.5-16.6
						c3-8.4,4.3-12.1,5.4-13.6c0.9-1.9,4.8-6.4,19.5-22.6c6-6.6,12.8-14.1,13.6-15.4l0.1-0.3l0.3-0.3c0.8-0.8,4.2-6.7,6.9-11.4
						c6-10.4,9.3-15.8,11.1-17.4c0.9-1.3,3.6-3.5,10.9-9.3c4.3-3.4,10.5-8.4,12.9-10.8l-1.3-0.7l1.7-1c-2.3-2.5-9.3-7.9-13.8-11.3
						c-7.1-5.4-10.2-7.9-11.2-9.4c-1.5-1.5-4.6-6.5-15.4-25.5c-4.4-7.8-9.4-16.5-10.4-17.7l-0.2-0.2l-0.2-0.4c-0.5-1-5-6.1-8.7-10.1
						c-8-8.9-12.2-13.7-13.1-16c-0.9-1.3-2.2-4.5-5.5-13.3c-1.9-5.2-4.7-12.5-6.3-15.6l-1,1l-0.4-1.9c-3,1.4-10.3,6.4-15,9.6
						c-7.3,5.1-10.6,7.2-12.4,7.8c-1.9,1-7.6,2.3-29,6.8c-8.7,1.8-18.7,3.9-20.1,4.5l-0.3,0.2l-0.4,0.1c-1.2,0.2-7.3,2.9-12.3,5.1
						c-10.2,4.5-16.8,7.4-19.3,7.5c-1.5,0.5-5,0.7-14.3,1.1c-5.5,0.3-13.4,0.6-16.8,1.2l0.7,1.3l-1.9-0.2c0.4,3.3,2.9,11.8,4.5,17.2
						c2.5,8.5,3.6,12.3,3.6,14.2c0.4,2.1-0.1,8-2.5,29.7c-1,8.9-2.1,18.9-2,20.5l0.1,0.3l-0.1,0.4c-0.2,1.1,0.5,7.9,1.1,13.3
						c1.2,11.9,1.8,18.2,1.2,20.7c0,1.6-0.9,5-3.3,14c-1.5,5.3-3.6,12.9-4.1,16.3l1.5-0.2l-0.8,1.8c3.3,0.7,12.2,0.9,17.7,1
						c8.8,0.2,12.8,0.4,14.5,1c2.2,0.3,9.3,3.3,27.5,11.6c8.1,3.7,17.4,7.8,18.9,8.2l0.3,0l0.4,0.2c1,0.5,7.6,1.9,12.9,3.1
						C301.8,399.1,307.9,400.5,310.1,401.8L310.1,401.8z"/>
					<path class="st2" d="M346.2,412.2c-2.2,0-7-2.5-14.5-6.7c-3.3-1.9-7.9-4.4-8.9-4.6l-0.5,0l-0.3-0.3c-1.6-0.8-12.6-2.7-20-3.9
						c-9.1-1.5-13.4-2.3-14.8-2.8c-1.7-0.3-6.2-2.1-16.2-6.3c-8.1-3.3-20.3-8.4-22.1-8.4l-0.5,0.1l-0.3-0.2c-0.2,0-0.9-0.1-2.8-0.1
						c-3.1,0-8.1,0.2-13.2,0.4c-5.9,0.2-12.1,0.5-16.6,0.5c-5.6,0-6.9-0.4-7.6-1.1c-0.2-0.1-0.3-0.3-0.5-0.4
						c-1.3-1.5-0.8-5.3,1.5-16.7c0.7-3.8,1.8-8.9,1.6-9.9l-0.1-0.5l0.2-0.4c0.3-1.8-1.4-12.9-2.4-20.2c-1.3-9.1-1.9-13.4-1.9-15
						c-0.2-1.7,0.1-6.6,0.9-17.3c0.7-8.7,1.7-21.8,1.2-23.6l-0.2-0.5l0.1-0.3c-0.2-1.5-3-9.1-5.3-15.2c-6.9-18.7-7.7-21.7-6.9-23.2
						c0-0.2,0.1-0.3,0.2-0.5c0.9-1.8,4.6-2.5,16.5-3.9c3.8-0.5,9-1.1,9.9-1.5l0.5-0.3l0.4,0c1.8-0.3,11.8-5.3,18.5-8.6
						c8.3-4.1,12.2-6,13.7-6.4c1.5-0.7,6.3-1.9,16.8-4.5c8.5-2.1,21.3-5.1,22.8-6.2l0.4-0.4h0.4c1.4-0.7,7.7-5.7,12.8-9.7
						c13.3-10.5,17.7-13.8,19.5-13.8c0.1,0,0.3,0,0.4,0c2.2-0.2,3.9,2.8,9.3,14.5c1.7,3.7,3.8,8.2,4.5,9l0.4,0.3l0.1,0.4
						c0.8,1.6,8.7,9.6,13.9,14.9c6.5,6.6,9.5,9.7,10.3,11c1.2,1.2,3.8,5.4,9.4,14.6c4.6,7.4,11.5,18.7,12.9,19.8l0.5,0.2l0.1,0.3
						c1.1,1.1,7.8,5.6,13.2,9.2c16.6,11.1,19,13,19.2,14.7c0.1,0.2,0.1,0.3,0.1,0.5c0.3,2-2.2,4.7-11,12.9c-2.8,2.6-6.7,6.2-7.1,7.1
						l-0.2,0.5l-0.4,0.2c-1.3,1.3-6.5,11.2-9.9,17.8c-4.3,8.2-6.3,12-7.3,13.2c-0.8,1.5-4,5.3-10.9,13.5
						c-5.7,6.6-14.2,16.7-14.8,18.4l-0.1,0.5l-0.3,0.2c-0.7,1.3-2.9,9.1-4.7,15.4c-5.2,18.7-6.5,22.3-8.1,22.9
						C347.4,412,346.9,412.2,346.2,412.2L346.2,412.2z M346.2,409v1.6V409L346.2,409L346.2,409z M323.5,397.8
						c1.5,0.3,4.2,1.8,9.8,4.9c3.8,2.1,9.8,5.4,12.2,6.2l0.3-1.8l0.9,0.8c1.5-3.4,4.2-13.1,6.1-19.9c3.1-11.1,4.3-15,5.1-16.4
						c0.8-2.1,4.9-7.1,15.4-19.4c4.5-5.2,10-11.8,10.6-12.9l0.1-0.3l0.2-0.3c0.7-0.8,4.1-7.4,6.9-12.6c6.5-12.3,9.1-17.2,10.6-18.6
						c0.8-1.3,3-3.4,7.7-7.8c3.2-2.9,8.2-7.6,9.6-9.7l-1.6-0.8l1.1-0.6c-2.8-2.4-11.2-8-17-11.9c-9.6-6.4-12.9-8.7-14-9.9
						c-1.7-1.4-5.2-6.8-13.7-20.6c-3.6-5.9-8.1-13.2-9-14l-0.2-0.2l-0.2-0.3c-0.5-0.9-5.7-6.2-9.9-10.5c-9.7-10-13.5-14-14.5-15.8
						c-1-1.1-2.3-3.9-5.1-9.7c-1.8-3.9-4.7-10.2-6.2-12.2l-1.3,1.3l-0.3-1.2c-3.2,1.9-11.1,8.2-16.6,12.5
						c-9.1,7.2-12.3,9.6-13.8,10.2c-1.9,1.2-8.1,2.9-23.8,6.7c-6.7,1.6-15,3.6-16.1,4.2l-0.3,0.1l-0.3,0.1c-1,0.2-7.7,3.5-13,6.2
						c-12.4,6.1-17.6,8.6-19.5,8.9c-1.4,0.6-4.5,1-10.8,1.8c-4.3,0.5-11.1,1.3-13.5,2.2l0.8,1.6l-1.2-0.1c0.8,3.6,4.3,13.1,6.8,19.6
						c4,10.8,5.4,14.6,5.4,16.3c0.6,2.2,0.2,8.6-1,24.7c-0.5,6.9-1.2,15.4-1,16.6l0,0.3l0,0.4c-0.1,1.1,1,8.4,1.8,14.3
						c2,13.8,2.7,19.3,2.4,21.3c0.1,1.5-0.4,4.5-1.6,10.8c-0.8,4.2-2.1,11-2.1,13.5l1.8-0.3l-0.5,1.1c0.8,0.1,2.1,0.1,4.3,0.1
						c4.5,0,10.6-0.3,16.5-0.5c5.2-0.2,10.2-0.4,13.4-0.4c2.1,0,3.2,0.1,3.8,0.2c2.3,0.1,10.4,3.3,23.2,8.6
						c6.4,2.6,14.3,5.9,15.5,6.1l0.3,0l0.3,0.1c1,0.4,8.3,1.7,14.1,2.7C316.1,395.8,321.6,396.9,323.5,397.8L323.5,397.8z"/>
					<path class="st2" d="M354.1,401.9c-2.5,0-6.9-1.8-11.1-3.4c-2.7-1.1-5.5-2.2-6.5-2.3l-0.4,0l-0.2-0.2c-1.6-0.6-13-2.1-21.3-3.2
						c-10.8-1.4-14.7-2-15.9-2.4c-1.7-0.2-5.9-1.7-12.6-4c-7-2.5-15.7-5.5-17.9-5.5l-0.4,0.1l-0.3-0.1c-0.1,0-0.3,0-0.5,0
						c-2.5,0-10.3,0.7-18.4,1.4c-9.9,0.9-20.1,1.8-24.2,1.8c-1.1,0-1.8,0-2.3-0.3c-0.4-0.1-0.8-0.3-1.2-0.6c-1.5-1.6-1.3-6-0.9-13
						c0.2-2.9,0.4-5.9,0.1-6.9l-0.1-0.4l0.1-0.3c0.1-1.7-2-13-3.5-21.2c-2-10.7-2.7-14.5-2.7-15.8c-0.3-1.6-0.2-6.2-0.1-13.3
						c0.2-6.9,0.4-17.4-0.3-18.8l-0.2-0.4l0-0.3c-0.3-1.5-4-10-7.2-17.6c-8.3-19.5-9.8-23.4-9.6-24.7c-0.1-0.4,0-0.8,0.2-1.2
						c0.9-2,5.2-3.3,12.1-5c2.8-0.7,5.7-1.5,6.6-2l0.4-0.2l0.3,0c1.7-0.5,11.7-5.9,19.1-9.9c9.6-5.2,13-7,14.2-7.4
						c1.5-0.8,5.8-2.1,12.6-4.2c6.6-2,16.6-5,17.8-6.1l0.3-0.3l0.3,0c1.3-0.8,8.3-6.9,14.4-12.3c15.9-13.9,19.2-16.5,20.6-16.8
						c0.3-0.1,0.6-0.2,0.9-0.2c2.3,0,4.8,3.8,8.8,10c1.6,2.5,3.2,5,3.9,5.7l0.3,0.3l0.1,0.3c1,1.4,9.3,9.3,15.3,15.1
						c7.9,7.5,10.7,10.2,11.5,11.2c1.2,1.1,3.8,4.8,7.8,10.7c3.9,5.7,9.9,14.3,11.3,15l0.4,0.2l0.1,0.2c1.1,1,9.1,5.8,16.1,10
						c18.8,11.2,21.9,13.3,22.4,14.4c0.2,0.3,0.4,0.6,0.5,1c0.5,2.2-2.3,5.7-6.9,11.2c-1.9,2.2-3.8,4.6-4.2,5.5l-0.2,0.4l-0.2,0.1
						c-1.1,1.4-6,11.7-9.6,19.3c-4.7,9.8-6.4,13.3-7.1,14.4c-0.7,1.5-3.4,5.1-7.8,10.8c-4.2,5.5-10.5,13.8-10.8,15.4l-0.1,0.4
						l-0.2,0.2c-0.6,1.4-2.7,10.4-4.5,18.4c-4.6,20.1-5.8,24.7-6.8,25.8C356.2,401.4,355.5,402,354.1,401.9L354.1,401.9z
						 M336.8,393.7c1.4,0.2,3.6,1,7,2.4c3.7,1.5,8.2,3.3,10.2,3.3c0.1,0,0.2,0,0.2,0l0.3-2l0.5,0.5c1.2-3.8,3.8-14.9,5.7-23.4
						c3.3-14.3,4.2-17.9,4.8-19.1c0.6-2.3,4.7-7.7,11.2-16.3c3.4-4.5,7-9.2,7.5-10.3l0.1-0.3l0.2-0.2c0.5-0.7,3.9-7.7,6.8-13.9
						c7-14.7,9.1-18.7,10.1-19.9c0.6-1.2,2.1-3.1,4.5-5.9c2.2-2.6,6.1-7.4,6.3-8.9l-1.8-0.9l0.6-0.3c-3.2-2.3-13-8.2-20.5-12.6
						c-12.6-7.5-15.8-9.5-16.7-10.4c-2-1.3-5.9-6.9-12-15.7c-3.2-4.7-6.6-9.5-7.5-10.3l-0.2-0.2l-0.1-0.2
						c-0.5-0.7-6.1-6.1-11.1-10.8c-11.8-11.2-15-14.4-15.8-15.7c-1-0.9-2.3-3-4.3-6.1c-1.8-2.9-5.1-8.1-6.5-8.8l-1.4,1.4l-0.2-0.7
						c-3.2,2.3-11.8,9.9-18.4,15.6c-11.1,9.6-13.9,12-15.1,12.6c-1.8,1.5-8.3,3.5-18.7,6.6c-5.4,1.6-11.1,3.3-12.1,4l-0.2,0.1
						l-0.3,0c-0.8,0.3-7.7,4-13.7,7.2c-13.8,7.5-18.3,9.8-19.8,10.2c-1.2,0.6-3.5,1.3-7.1,2.2c-3.3,0.8-9.3,2.4-10.4,3.5l0.9,1.8
						l-0.7-0.1c1.2,3.8,5.7,14.3,9.1,22.2c5.8,13.5,7.2,17,7.4,18.3c0.8,2.2,0.7,9,0.5,19.8c-0.1,5.7-0.3,11.5,0,12.8l0.1,0.3l0,0.3
						c0,0.9,1.4,8.5,2.6,15.3c3,16,3.7,20.5,3.6,22c0.3,1.3,0.1,3.7-0.1,7.4c-0.2,3.4-0.6,9.6,0.1,10.9l2.1-0.3l-0.3,0.6
						c4.1,0,14.6-1,24-1.8c8.2-0.7,16-1.4,18.7-1.4c0.4,0,0.8,0,1,0.1c2.3-0.1,9.2,2.3,18.9,5.7c5.4,1.9,10.9,3.8,12.1,3.9l0.3,0
						l0.2,0.1c0.8,0.3,8.5,1.3,15.3,2.2C331,392.5,335.4,393.2,336.8,393.7L336.8,393.7z"/>
					<path class="st2" d="M359.5,392.6c-2.1,0-4.5-0.3-6.5-0.6c-1.2-0.2-2.1-0.3-2.9-0.4l-0.3,0l-0.1-0.1
						c-1.6-0.4-13.7-1.6-22.7-2.5c-12.9-1.3-16-1.6-16.9-1.8c-1.6-0.1-4.9-0.9-8.7-1.8c-5.2-1.2-11-2.7-13.7-2.7c-0.3,0-0.5,0-0.6,0
						l-0.3,0l-0.1,0c-1.8,0.1-11.9,1.4-21.7,2.6c-12.9,1.7-26.3,3.4-28.6,3.4c-0.1,0-0.3,0-0.5,0c-0.1,0-0.1,0-0.2,0l0,0
						c-3.6,0-4.6-6-5.4-10.8c-0.2-1.1-0.4-2.1-0.6-2.9l-0.1-0.3l0-0.1c-0.2-1.7-2.7-13.6-4.6-22.3c-2.7-12.7-3.4-15.7-3.5-16.6
						c-0.4-1.6-0.6-4.9-0.9-8.8c-0.4-5.6-1-12.6-1.9-14.5l-0.1-0.3l0-0.1c-0.5-1.5-5.1-11.2-9.2-19.8c-9.4-19.8-11.7-24.9-12.1-26.4
						c-1.7-3.5,4.2-6.6,8.5-8.9c1-0.5,1.9-1,2.6-1.4l0.3-0.2h0.1c1.5-0.7,12-6.8,19.8-11.3c11.2-6.5,13.9-8.1,14.8-8.4
						c1.4-0.8,4.5-2.1,8.1-3.6c5.2-2.1,11.7-4.8,13.2-6.3l0.2-0.2h0.1c1.2-1,9.1-8.3,16-14.9c17.2-16.2,20.6-19.2,21.6-19.8
						c0.5-0.5,1.2-0.7,1.9-0.7c2.7,0,6.2,3.4,9,6.1c0.8,0.8,1.6,1.5,2.1,2l0.2,0.2l0,0.1c1.1,1.2,10.2,9.4,16.9,15.3
						c9.7,8.6,12,10.7,12.6,11.4c1.2,1,3.4,3.6,6,6.6c3.6,4.3,8.2,9.6,10.1,10.6l0.3,0.1l0,0.1c1.3,0.9,10.7,6.1,19.1,10.6
						c19.1,10.5,24,13.2,25.3,14.3c3.4,1.8,0.5,7.8-1.6,12.2c-0.5,1-0.9,1.9-1.2,2.7l-0.1,0.3l-0.1,0.1c-0.9,1.4-5.8,12.6-9.4,20.8
						c-5.2,11.9-6.5,14.7-7,15.5c-0.6,1.5-2.4,4.4-4.4,7.7c-2.9,4.8-6.6,10.7-6.9,12.9l0,0.3l-0.1,0.1c-0.4,1.5-2.4,12.1-4.2,21.4
						c-3.9,20.4-5,26.6-5.8,28.4l0,0C364.7,391.6,362.8,392.6,359.5,392.6L359.5,392.6z M350.3,389.8c0.8,0.1,1.8,0.2,2.9,0.4
						c2,0.3,4.3,0.6,6.3,0.6c2.3,0,3.6-0.5,3.7-1.3l0.3-1.7l0.2,0.2c0.9-3.9,3.3-16.6,5.3-27c3.2-17,4-20.8,4.3-21.8
						c0.5-2.5,3.9-8.1,7.2-13.5c1.9-3.2,3.8-6.1,4.3-7.5l0.1-0.3c0.5-0.9,3.7-8.2,6.8-15.2c7.4-16.8,9-20.3,9.6-21.2
						c0.3-0.7,0.7-1.6,1.2-2.7c1.5-3.1,4.3-8.8,2.4-9.7l-1.5-0.8l0.2-0.1c-3.5-2.1-14.7-8.3-24-13.4c-15.2-8.3-18.6-10.2-19.5-10.9
						c-2.3-1.2-6.5-6.2-10.6-11c-2.4-2.8-4.7-5.5-5.8-6.4l-0.2-0.2c-0.7-0.8-6.6-6.1-12.4-11.2c-13.7-12.2-16.5-14.9-17.2-15.7
						c-0.6-0.5-1.3-1.2-2.1-2c-2.3-2.2-5.8-5.6-7.8-5.6c-0.3,0-0.6,0.1-0.8,0.3l-1.2,1.2l-0.1-0.3c-3.1,2.6-12.5,11.5-20.2,18.8
						c-12.6,11.8-15.4,14.5-16.3,15.1c-1.8,1.8-7.9,4.3-13.7,6.7c-3.4,1.4-6.7,2.7-7.9,3.5l-0.3,0.1c-1,0.4-7.8,4.5-14.5,8.3
						c-15.8,9.2-19.2,11.1-20.2,11.5c-0.7,0.4-1.6,0.9-2.6,1.4c-3,1.6-8.6,4.6-7.7,6.5l0.7,1.4h-0.3c1.5,3.6,7,15.4,11.6,25.1
						c7.4,15.6,9,19.2,9.3,20.2c1.1,2.3,1.6,8.8,2.1,15.1c0.3,3.7,0.6,7.2,0.9,8.6l0,0.2v0.1c0.1,1.1,1.8,8.8,3.4,16.3
						c3.9,17.9,4.6,21.7,4.7,22.8c0.2,0.8,0.4,1.8,0.6,2.9c0.6,3.3,1.7,9.6,3.8,9.3l1.7-0.3l-0.1,0.2c4.2-0.3,16.4-1.9,27.3-3.3
						c11-1.4,20.6-2.6,22-2.6c0,0,0.1,0,0.2,0c2.5-0.3,9.1,1.3,14.9,2.7c3.6,0.9,7,1.7,8.4,1.8l0.3,0.1c1,0.2,8.9,1,16.6,1.8
						C345.3,389,349.2,389.4,350.3,389.8L350.3,389.8z"/>
					<path class="st2" d="M248.2,393.6c-4.1,0-8-3-9-6.9l-10.1-41.1c-1-4.2-3.4-10.7-5.4-14.5l-26-50.9c-2.1-4.1-0.6-9.5,3.3-11.9
						l35.9-22.3c3.6-2.3,9.1-6.6,12.1-9.6l40.4-40.4c1.7-1.7,4-2.6,6.5-2.6c2.2,0,4.3,0.7,5.9,2.1l32.3,27.3c3.3,2.8,9,6.6,12.9,8.6
						l51,25.9c4.1,2.1,6.1,7.3,4.3,11.6l-16,39.1c-1.6,4-3.5,10.6-4.2,14.9l-8.9,56.5c-0.7,4.5-5.1,8-9.7,7.7l-42.2-3.1
						c-1.1-0.1-2.5-0.1-4-0.1c-4,0-8.5,0.3-11.4,0.8l-56.5,9C249.1,393.6,248.7,393.6,248.2,393.6L248.2,393.6z M296.1,194.5
						c-2.1,0-4.2,0.8-5.6,2.3l-40.4,40.4c-3.1,3.1-8.6,7.5-12.3,9.8l-36,22.3c-3.4,2.1-4.7,6.8-2.9,10.3l26,50.9
						c2,3.9,4.4,10.5,5.5,14.7l10.1,41.1c0.8,3.4,4.2,6,7.8,6c0.4,0,0.8,0,1.2-0.1l56.5-9c3-0.5,7.6-0.8,11.6-0.8
						c1.5,0,2.9,0,4.1,0.1l42.2,3.1c4,0.3,7.8-2.7,8.4-6.7l8.9-56.5c0.7-4.3,2.6-11.1,4.2-15.2l16-39.1c1.5-3.7-0.2-8.2-3.7-10.1
						l-51-25.9c-3.9-2-9.8-5.9-13.1-8.7l-32.3-27.3C299.9,195.1,298.1,194.5,296.1,194.5L296.1,194.5z"/>
				</g>
			</g>
		</g>
	</g>
</g>
</svg>
