<?xml version="1.0" encoding="UTF-8"?>
<!DOCTYPE svg PUBLIC "-//W3C//DTD SVG 1.1//EN" "http://www.w3.org/Graphics/SVG/1.1/DTD/svg11.dtd">
<!-- Creator: CorelDRAW -->
<svg xmlns="http://www.w3.org/2000/svg" xml:space="preserve" width="124.738mm" height="86.8885mm" version="1.1" style="shape-rendering:geometricPrecision; text-rendering:geometricPrecision; image-rendering:optimizeQuality; fill-rule:evenodd; clip-rule:evenodd"
viewBox="0 0 2351.6 3375.97"
 xmlns:xlink="http://www.w3.org/1999/xlink"
 xmlns:xodm="http://www.corel.com/coreldraw/odm/2003">
 <defs>
  <style type="text/css">
   <![CDATA[
    .fil0 {fill:url(#id0)}
   ]]>
  </style>
  <radialGradient id="id0" gradientUnits="userSpaceOnUse" gradientTransform="matrix(0.018761 -1.07419 0.663462 -0.00861328 35 3084)" cx="1222.84" cy="1755.51" r="1687.99" fx="1222.84" fy="1755.51">
   <stop offset="0" style="stop-opacity:1; stop-color:#FEFEFE"/>
   <stop offset="0.760784" style="stop-opacity:0.8; stop-color:white"/>
   <stop offset="1" style="stop-opacity:0.6; stop-color:white"/>
  </radialGradient>
 </defs>
 <g id="Capa_x0020_1">
  <metadata id="CorelCorpID_0Corel-Layer"/>
  <path class="fil0" d="M0 658.3l0 -292.81 365.5 -365.5 148.83 0 -514.33 658.3zm2351.6 111.57l0 -404.38 -365.5 -365.5 -619.9 0 985.4 769.88zm-2016.73 -282.98c38.2,-85.8 138.72,-124.39 224.52,-86.18l1792.21 797.94 0 -166.82 -1601.89 -962.51c-91.48,-54.97 -210.2,-25.37 -265.17,66.11l-484.54 806.41 0 297.18 334.87 -752.13zm-139.65 615.16c12.63,-71.63 80.93,-119.45 152.56,-106.83l1964.33 346.37c14.2,2.5 27.45,7.22 39.49,13.7l0 -56.83 -1922.9 -587.89c-79.04,-24.16 -162.7,20.32 -186.86,99.36l-241.84 791.01 0 608.25 195.22 -1107.14zm1945.27 2273.92l211.11 -690.53 0 -809.45 -264.49 1499.98 53.37 0zm-183.98 -47.24l-1752.87 -91.86c-63.92,-3.35 -113.01,-57.88 -109.67,-121.8l91.87 -1752.87c3.35,-63.92 57.88,-113.01 121.79,-109.66l1752.87 91.86c63.92,3.35 113.01,57.88 109.67,121.8l-91.87 1752.87c-3.35,63.92 -57.88,113.02 -121.79,109.67zm-1534.38 -102.8l1540.88 -107.75c56.18,-3.93 98.55,-52.66 94.62,-108.85l-107.75 -1540.88c-3.93,-56.18 -52.66,-98.55 -108.85,-94.62l-1540.88 107.75c-56.19,3.93 -98.55,52.66 -94.62,108.85l107.75 1540.88c3.93,56.19 52.66,98.55 108.85,94.62zm189.67 -32.98c-48.65,9.46 -95.76,-22.31 -105.22,-70.97l-259.37 -1334.31c-9.46,-48.65 22.32,-95.76 70.97,-105.22l1334.31 -259.37c48.65,-9.46 95.76,22.32 105.22,70.97l259.37 1334.31c9.45,48.66 -22.32,95.76 -70.97,105.22l-1334.31 259.36zm162.13 -49.14l1137.62 -369.64c41.48,-13.48 64.18,-58.03 50.71,-99.51l-369.64 -1137.62c-13.48,-41.48 -58.03,-64.18 -99.51,-50.71l-1137.63 369.63c-41.48,13.48 -64.18,58.03 -50.71,99.51l369.64 1137.63c13.48,41.48 58.03,64.18 99.51,50.71zm136.34 -60.32c-34.79,16.22 -76.14,1.17 -92.36,-33.61l-444.86 -954.01c-16.22,-34.79 -1.17,-76.14 33.61,-92.36l954.01 -444.86c34.79,-16.22 76.13,-1.17 92.36,33.62l444.86 954.01c16.22,34.79 1.17,76.14 -33.62,92.36l-954.01 444.86zm112.62 -67.3l785.56 -490.87c28.65,-17.9 37.36,-55.63 19.46,-84.28l-490.87 -785.56c-17.9,-28.65 -55.63,-37.35 -84.27,-19.46l-785.56 490.87c-28.64,17.9 -37.35,55.63 -19.45,84.28l490.87 785.56c17.9,28.65 55.63,37.36 84.28,19.46zm91.15 -70.86c-23.1,18.71 -56.99,15.15 -75.7,-7.95l-513 -633.5c-18.7,-23.1 -15.14,-56.99 7.95,-75.7l633.5 -512.99c23.1,-18.71 56.99,-15.14 75.69,7.95l513 633.5c18.71,23.1 15.15,56.99 -7.95,75.69l-633.5 512.99zm72.01 -71.67l498.31 -516.01c18.17,-18.81 17.65,-48.79 -1.17,-66.97l-516.01 -498.3c-18.81,-18.17 -48.79,-17.65 -66.97,1.17l-498.3 516.01c-18.17,18.81 -17.65,48.79 1.17,66.97l516.01 498.31c18.82,18.17 48.8,17.65 66.97,-1.17zm-3.16 -62.12l-504.14 -379.9c-18.38,-13.85 -22.05,-39.99 -8.2,-58.37l379.9 -504.15c13.85,-18.38 39.99,-22.05 58.37,-8.2l504.15 379.9c18.38,13.86 22.06,39.99 8.2,58.37l-379.9 504.15c-13.85,18.38 -39.99,22.05 -58.37,8.2zm99.05 -75.55l277.75 -481.09c10.13,-17.54 4.12,-39.97 -13.42,-50.1l-481.08 -277.75c-17.54,-10.13 -39.97,-4.12 -50.1,13.42l-277.75 481.08c-10.13,17.54 -4.12,39.97 13.42,50.1l481.08 277.75c17.54,10.13 39.97,4.12 50.1,-13.42zm-14.01 -46.09l-449.98 -191.01c-16.41,-6.96 -24.07,-25.91 -17.1,-42.32l191.01 -449.99c6.97,-16.41 25.91,-24.07 42.32,-17.1l449.99 191.01c16.41,6.96 24.06,25.91 17.1,42.32l-191.01 449.99c-6.97,16.41 -25.91,24.07 -42.32,17.1zm60.27 -75.32l118.58 -413.52c4.32,-15.08 -4.39,-30.8 -19.47,-35.13l-413.52 -118.58c-15.08,-4.32 -30.81,4.39 -35.13,19.47l-118.58 413.52c-4.32,15.08 4.4,30.81 19.47,35.13l413.52 118.58c15.08,4.32 30.81,-4.4 35.13,-19.47zm-19.16 -32l-373.9 -59.22c-13.63,-2.16 -22.93,-14.96 -20.77,-28.6l59.22 -373.9c2.16,-13.63 14.96,-22.93 28.6,-20.77l373.9 59.22c13.63,2.16 22.94,14.96 20.78,28.6l-59.22 373.9c-2.16,13.63 -14.96,22.93 -28.6,20.77zm8.43 -46.67c12.14,0.42 22.32,-9.07 22.75,-21.21l11.63 -332.93c0.42,-12.14 -9.07,-22.33 -21.21,-22.75l-332.93 -11.63c-12.14,-0.42 -22.33,9.08 -22.75,21.21l-11.63 332.93c-0.42,12.14 9.07,22.33 21.21,22.75l332.93 11.63zm2.35 -41.67l-292.04 25.55c-10.65,0.93 -20.04,-6.94 -20.97,-17.59l-25.55 -292.04c-0.93,-10.65 6.94,-20.04 17.59,-20.97l292.04 -25.55c10.65,-0.93 20.04,6.94 20.97,17.59l25.55 292.04c0.93,10.65 -6.94,20.04 -17.59,20.97zm-254.75 16.99l252.34 -53.64c9.2,-1.96 15.07,-11 13.12,-20.2l-53.64 -252.34c-1.96,-9.2 -11,-15.07 -20.2,-13.12l-252.34 53.64c-9.2,1.95 -15.07,11 -13.12,20.2l53.64 252.34c1.96,9.2 11,15.07 20.2,13.12zm246.3 -85.39l-214.65 73.91c-7.82,2.7 -16.36,-1.46 -19.05,-9.29l-73.91 -214.65c-2.69,-7.83 1.47,-16.36 9.29,-19.05l214.65 -73.91c7.83,-2.7 16.36,1.47 19.05,9.29l73.91 214.65c2.69,7.83 -1.47,16.36 -9.29,19.05zm-188.24 60.49l179.56 -87.58c6.55,-3.19 9.27,-11.09 6.07,-17.64l-87.58 -179.56c-3.19,-6.55 -11.09,-9.27 -17.64,-6.07l-179.56 87.58c-6.55,3.19 -9.26,11.09 -6.07,17.64l87.58 179.56c3.19,6.55 11.09,9.26 17.64,6.07zm169.08 -110.3l-147.45 95.75c-5.38,3.49 -12.56,1.96 -16.05,-3.41l-95.75 -147.45c-3.49,-5.38 -1.96,-12.57 3.41,-16.06l147.44 -95.75c5.38,-3.49 12.56,-1.96 16.06,3.41l95.75 147.44c3.49,5.38 1.96,12.57 -3.41,16.06zm-130.11 80.72l118.51 -99.44c4.32,-3.63 4.88,-10.07 1.26,-14.39l-99.45 -118.52c-3.62,-4.32 -10.07,-4.88 -14.39,-1.26l-118.51 99.44c-4.32,3.63 -4.89,10.07 -1.26,14.39l99.45 118.52c3.62,4.32 10.07,4.88 14.39,1.26zm106.38 -114.56l-92.85 99.57c-3.38,3.63 -9.07,3.83 -12.7,0.44l-99.57 -92.85c-3.63,-3.38 -3.83,-9.07 -0.44,-12.7l92.85 -99.57c3.39,-3.63 9.07,-3.83 12.7,-0.44l99.57 92.85c3.63,3.39 3.83,9.07 0.45,12.7zm-82.64 85.03l70.42 -96.92c2.57,-3.53 1.78,-8.48 -1.75,-11.05l-96.92 -70.42c-3.53,-2.57 -8.48,-1.78 -11.05,1.75l-70.42 96.93c-2.57,3.53 -1.78,8.48 1.75,11.05l96.92 70.42c3.53,2.57 8.48,1.78 11.05,-1.75zm58.47 -106.01l-51.11 92.21c-1.86,3.36 -6.1,4.58 -9.46,2.71l-92.21 -51.11c-3.36,-1.86 -4.58,-6.1 -2.71,-9.46l51.11 -92.21c1.86,-3.36 6.1,-4.58 9.46,-2.71l92.21 51.11c3.36,1.86 4.58,6.1 2.71,9.46zm-46.17 79.37l34.76 -86.02c1.27,-3.14 -0.25,-6.71 -3.38,-7.98l-86.02 -34.75c-3.14,-1.27 -6.7,0.25 -7.97,3.38l-34.76 86.02c-1.27,3.14 0.25,6.71 3.38,7.98l86.02 34.76c3.14,1.27 6.71,-0.25 7.97,-3.39zm24.07 -90.61l-21.13 78.86c-0.77,2.88 -3.73,4.58 -6.6,3.81l-78.86 -21.13c-2.87,-0.77 -4.58,-3.73 -3.81,-6.6l21.13 -78.86c0.77,-2.88 3.73,-4.58 6.6,-3.81l78.86 21.13c2.88,0.77 4.58,3.73 3.81,6.6zm-19.82 68.29l10 -71.15c0.37,-2.59 -1.44,-4.99 -4.04,-5.36l-71.15 -10c-2.59,-0.37 -4.99,1.44 -5.36,4.04l-10 71.15c-0.36,2.6 1.44,4.99 4.04,5.36l71.15 10c2.59,0.36 4.99,-1.44 5.36,-4.04zm1.12 -72.59l-1.1 63.21c-0.04,2.31 -1.94,4.14 -4.25,4.1l-63.21 -1.1c-2.3,-0.04 -4.14,-1.94 -4.1,-4.25l1.1 -63.22c0.04,-2.3 1.94,-4.14 4.25,-4.1l63.21 1.1c2.3,0.04 4.14,1.94 4.1,4.25zm-2.1 55.02l-5.82 -55.33c-0.21,-2.02 -2.02,-3.48 -4.04,-3.27l-55.33 5.81c-2.02,0.21 -3.48,2.02 -3.27,4.04l5.82 55.33c0.21,2.02 2.02,3.48 4.04,3.27l55.33 -5.81c2.02,-0.21 3.48,-2.02 3.27,-4.04zm-12.76 -54.75l11.02 47.71c0.4,1.74 -0.68,3.47 -2.42,3.88l-47.71 11.02c-1.74,0.4 -3.48,-0.68 -3.88,-2.42l-11.01 -47.7c-0.4,-1.74 0.68,-3.48 2.42,-3.88l47.71 -11.02c1.74,-0.4 3.48,0.68 3.88,2.42zm-9.65 -0.45l-40.49 14.74c-1.48,0.54 -2.24,2.17 -1.7,3.65l14.74 40.49c0.54,1.48 2.17,2.24 3.65,1.7l40.49 -14.74c1.48,-0.54 2.24,-2.17 1.7,-3.65l-14.73 -40.49c-0.54,-1.48 -2.17,-2.24 -3.65,-1.7zm-4.83 2.34c1.23,-0.63 2.74,-0.14 3.37,1.09l17.21 33.78c0.63,1.23 0.14,2.74 -1.09,3.37l-33.78 17.21c-1.23,0.63 -2.74,0.14 -3.37,-1.09l-17.21 -33.78c-0.63,-1.23 -0.14,-2.74 1.09,-3.37l33.78 -17.21zm-3.97 2.57l-27.66 18.66c-1.01,0.68 -1.27,2.05 -0.6,3.06l18.66 27.66c0.68,1.01 2.05,1.27 3.06,0.6l27.66 -18.66c1.01,-0.68 1.27,-2.05 0.59,-3.06l-18.66 -27.66c-0.68,-1.01 -2.05,-1.27 -3.06,-0.59zm-3.19 2.66c0.81,-0.7 2.03,-0.62 2.73,0.19l19.26 22.16c0.7,0.81 0.62,2.03 -0.19,2.73l-22.16 19.26c-0.81,0.71 -2.03,0.62 -2.74,-0.19l-19.26 -22.16c-0.71,-0.81 -0.62,-2.03 0.19,-2.73l22.16 -19.26zm-2.5 2.67l-17.29 19.2c-0.63,0.7 -0.57,1.78 0.12,2.41l19.2 17.29c0.7,0.63 1.78,0.58 2.41,-0.12l17.29 -19.2c0.63,-0.7 0.57,-1.78 -0.12,-2.41l-19.2 -17.29c-0.7,-0.63 -1.78,-0.58 -2.41,0.12zm-14.94 21.23c-0.47,0.68 -0.31,1.62 0.37,2.09l18.63 13.04c0.68,0.47 1.62,0.31 2.09,-0.37l13.04 -18.63c0.48,-0.68 0.31,-1.62 -0.37,-2.09l-18.62 -13.04c-0.68,-0.48 -1.62,-0.31 -2.09,0.37l-13.04 18.63z"/>
 </g>
</svg>
