<?xml version="1.0" encoding="utf-8"?>
<!-- Generator: Adobe Illustrator 27.1.1, SVG Export Plug-In . SVG Version: 6.00 Build 0)  -->
<svg version="1.1" id="Capa_1" xmlns="http://www.w3.org/2000/svg" xmlns:xlink="http://www.w3.org/1999/xlink" x="0px" y="0px"
	 viewBox="0 0 577.7 170" style="enable-background:new 0 0 577.7 170;" xml:space="preserve">
<style type="text/css">
	.st0{opacity:0.5;fill:#FFFFFF;enable-background:new    ;}
	.st1{fill:#FFFFFF;}
</style>
<g id="Background">
</g>
<g>
	<g>
		<path class="st0" d="M165.8,84.9c0-44.5-36.1-80.6-80.6-80.6S4.6,40.4,4.6,84.9s36.1,80.6,80.6,80.6c0.9,0,1.8,0,2.7-0.1l-5.1-4.5
			L9.9,95.6c-0.5-3.5-0.8-7-0.8-10.6c0-0.8,0-1.5,0.1-2.3l12.5,11.2h56.1c1.9-6.1,7.6-10.5,14.4-10.5c8.3,0,15.1,6.8,15.1,15.1
			s-6.8,15.1-15.1,15.1c-6.7,0-12.4-4.4-14.4-10.5h-46l63.9,57.3l4.4,3.9C137.5,157.1,165.8,124.3,165.8,84.9z M130.7,91.4
			c-6.7,0-12.4-4.4-14.4-10.5H56.1H9.3c0.2-3.1,0.5-6.1,1-9.1h43.3l16.2-25.9c0.8-1.3,2.3-2.1,3.9-2.1h15.5
			c1.9-6.1,7.6-10.5,14.4-10.5c8.3,0,15.1,6.8,15.1,15.1s-6.8,15.1-15.1,15.1c-6.7,0-12.4-4.4-14.4-10.5H76.3L64.4,71.8h52
			c1.9-6.1,7.6-10.5,14.4-10.5c8.3,0,15.1,6.8,15.1,15.1C145.8,84.7,139,91.4,130.7,91.4z"/>
		<path class="st0" d="M92.2,104.3c3.3,0,6-2.7,6-6s-2.7-6-6-6s-6,2.7-6,6C86.2,101.7,88.9,104.3,92.2,104.3z"/>
		<path class="st0" d="M103.5,54.3c3.3,0,6-2.7,6-6s-2.7-6-6-6s-6,2.7-6,6S100.2,54.3,103.5,54.3z"/>
		<path class="st0" d="M130.7,70.4c-3.3,0-6,2.7-6,6s2.7,6,6,6s6-2.7,6-6S134,70.4,130.7,70.4z"/>
	</g>
	<path class="st1" d="M9.3,123.4c15,27.2,42.8,46.6,75.9,46.6c2.5,0,5-0.1,7.5-0.3l-9.9-8.8C45.6,159.7,15,131.7,9.9,95.6
		c-0.5-3.5-0.8-7-0.8-10.6c0-0.8,0-1.5,0.1-2.3c0-0.6,0.1-1.2,0.1-1.7c0.2-3.1,0.5-6.1,1-9.1C16.7,35.3,49.3,7.7,88,9.1
		c39.5,1.5,71.6,33.5,73.1,73.1s-27.6,72.8-65.4,78.1l8.6,7.7c24.9-5.7,45.6-22.4,56.9-44.6c5.6-11.1,8.9-23.6,9.1-36.8
		c0-0.5,0-1,0-1.5C170.3,38.2,132.1,0,85.2,0S0,38,0,85c0,1.5,0.1,3,0.1,4.5C0.1,97.5,4.4,114.6,9.3,123.4z"/>
	<g>
		<path class="st1" d="M406.3,23.1C414,41,384.6,53.8,376.8,36C369.1,18.1,398.5,5.3,406.3,23.1z"/>
		<path class="st1" d="M402.5,54.8c-8.1,3.5-12.4,10.7-10,16.2l34.7,79.7c2.4,5.5,10.6,7.2,18.7,3.7s12.4-10.7,10-16.2l-34.7-79.7
			C418.8,53,410.6,51.2,402.5,54.8z M429,99.8c1.2,2.7,0,5.8-2.6,7.4l11.1,25.5c10.2-3.5,15.5,11.1,5.5,15.2
			c-9.8,4.5-16.8-9.3-7.4-14.5l-11.1-25.5c-6.7,2-10.6-7-4.6-10.5l-9.3-21.3c-10.2,3.5-15.5-11.1-5.5-15.2
			c9.8-4.5,16.8,9.3,7.4,14.5l9.3,21.3C424.8,95.8,427.8,97.1,429,99.8z"/>
	</g>
	<g>
		<path class="st1" d="M298,142.3c-0.1,19-30,19-30,0C268.1,123.3,297.9,123.3,298,142.3z"/>
		<path class="st1" d="M402,132.3L353.8,23.9c-4.9-12.8-25.9-14.3-32.6-2.6L285,102.6c-4.7,9.3,9,21.4,20,20.9v0.2h53.7l10,22.4
			C378.2,167.1,411,153.9,402,132.3z M320.7,111.2l16.2-36.4l16.2,36.4H320.7z M389.4,148.2c-10.2,4.4-18-10.8-8-15.9l-16.6-38.6
			c-7,1.9-11.4-8-5-11.6l-17-39.7c-10.6,3.3-16.6-12.7-6-16.7c10.2-4.4,18,10.8,8,16l17,39.7c7-1.9,11.3,8.1,5,11.6l16.6,38.6
			C394,128.3,400,144.2,389.4,148.2z"/>
	</g>
	<g>
		<path class="st1" d="M245.2,151.2l-32.9-14.5l-7.2,16.3l-7-3.1l17.7-40l7,3.1l-7.2,16.3l32.9,14.5L245.2,151.2z"/>
		<path class="st1" d="M258,122.6l-40.1-17.7l3.3-7.5l40.1,17.7L258,122.6z M273.2,88.1l-17.3-7.7l-9.5,21.6l-6.2-2.7l9.5-21.6
			l-16.5-7.3l3.3-7.5l40.1,17.7L273.2,88.1z"/>
		<path class="st1" d="M279.6,73.1l-39.9-17.6l16.9-38.3l7,3.1L250,51.1l26,11.4l13.6-30.9l7,3.1L279.6,73.1z M268,52.5l-5.9-2.6
			l10.5-23.8l5.9,2.6L268,52.5z"/>
	</g>
	<g>
		<path class="st1" d="M461.4,79.2l0.3-39.1c0-5.8-3-8.9-8.7-8.9h-6l0.1-10.2h6c12.5,0.1,19.5,7.2,19.5,19.2l-0.3,39.1L461.4,79.2z"
			/>
		<path class="st1" d="M481.4,49.7c0.1-17,14.3-29.1,32.6-29c18.2,0.1,32.3,12.4,32.2,29.4s-14.4,30.3-32.6,30.2
			C495.3,80.2,481.3,66.6,481.4,49.7z M514,30.9c-13.8-0.1-21.5,8.1-21.6,19.3S500,70,513.7,70.1c13.8,0.1,21.5-8.4,21.6-19.6
			C535.3,39.3,527.5,31,514,30.9z"/>
		<path class="st1" d="M566.5,79.9l0.3-39.1c0-5.8-3-8.9-8.7-8.9h-6l0.1-10.2h6c12.5,0.1,19.5,7.2,19.5,19.2L577.4,80L566.5,79.9z"
			/>
	</g>
</g>
</svg>
